<svg xmlns="http://www.w3.org/2000/svg" viewBox="0 0 500 500"><g id="Floor"><path id="floor" d="M448.1,425.91A178.91,178.91,0,0,1,418,446.09c-87.44,47.31-229.2,47.31-316.63,0s-87.44-124,0-171.3a264.93,264.93,0,0,1,49.9-20.36Z" style="fill:#f5f5f5"></path></g><g id="Windows"><g id="windows"><path d="M374.57,282a8,8,0,0,1-4-1.18L173.46,167.23c-5.92-3.41-10.74-13.55-10.74-22.6V53c0-5.34,1.64-9.35,4.51-11,2-1.16,4.46-1,6.91.39L371.25,155.92c5.93,3.41,10.75,13.55,10.75,22.6v91.65c0,5.34-1.64,9.35-4.51,11A5.73,5.73,0,0,1,374.57,282ZM170.16,42.59a4.39,4.39,0,0,0-2.24.59c-2.38,1.38-3.81,5-3.81,9.8v91.65c0,8.61,4.51,18.2,10,21.39L371.27,279.57c2,1.17,4,1.31,5.52.39,2.39-1.37,3.82-5,3.82-9.79V178.52c0-8.61-4.51-18.2-10.05-21.4L173.45,43.58A6.67,6.67,0,0,0,170.16,42.59Z" style="fill:#e0e0e0"></path><g id="Window"><path d="M225.17,177a23.44,23.44,0,0,1-11.55-3.5h0c-14.8-8.55-26.84-30.32-26.84-48.52V101.12c0-9.34,3.07-16.26,8.66-19.48,5.12-3,11.77-2.37,18.73,1.64C229,91.83,241,113.6,241,131.81v23.82c0,9.34-3.08,16.26-8.67,19.48A14.07,14.07,0,0,1,225.17,177Zm-11-4.44c6.6,3.81,12.86,4.39,17.63,1.64,5.16-3,8.12-9.74,8.12-18.54V131.81c0-17.87-11.8-39.21-26.3-47.58-6.6-3.82-12.86-4.4-17.63-1.65-5.16,3-8.12,9.74-8.12,18.54V125C187.87,142.81,199.66,164.15,214.17,172.53Z" style="fill:#e0e0e0"></path><path d="M213.89,92.31c-4.74-2.74-9.14-3.44-12.74-2.4h0l0,0c-.35.11-.7.23-1,.36a10.07,10.07,0,0,0-1,.47,11.31,11.31,0,0,0-2.64,2A15.56,15.56,0,0,0,195.31,94a16.27,16.27,0,0,0-2.56,5.25c-.05.18-.1.36-.14.54a22.18,22.18,0,0,0-.67,3.67q0,.36-.06.72a10.56,10.56,0,0,0-.08,1.15c0,.18,0,.38,0,.56s0,.57,0,.85v17.67c0,15,9.9,32.95,22.12,40a19,19,0,0,0,9.39,2.86l.7,0,.68-.06a10.94,10.94,0,0,0,2-.39c.2-.06.38-.13.57-.2s.43-.15.64-.24l.52-.25a5.65,5.65,0,0,0,.6-.31l.56-.35a6.3,6.3,0,0,0,.53-.37c.18-.13.34-.27.52-.42C234,161.86,236,156.8,236,150V132.32C236,117.27,226.11,99.36,213.89,92.31ZM231.65,150c0,4.31-.91,7.81-2.66,10.11l-.15.2a10.34,10.34,0,0,1-1.13.09,15,15,0,0,1-7.2-2.27c-10.82-6.24-19.94-22.83-19.95-36.23V104.21c0-2,.28-7.12,2.78-10.28a4.85,4.85,0,0,1,.57-.09,5.54,5.54,0,0,1,.59,0,15,15,0,0,1,7.21,2.27c10.81,6.25,19.94,22.84,19.94,36.24Z" style="fill:#37474f"></path><path d="M231.65,132.32V150c0,4.31-.91,7.81-2.66,10.11l-.15.2a10.34,10.34,0,0,1-1.13.09,15,15,0,0,1-7.2-2.27c-10.82-6.24-19.94-22.83-19.95-36.23V104.21c0-2,.28-7.12,2.78-10.28a4.85,4.85,0,0,1,.57-.09,5.54,5.54,0,0,1,.59,0,15,15,0,0,1,7.21,2.27C222.52,102.33,231.65,118.92,231.65,132.32Z" style="fill:#BA68C8"></path><path d="M231.65,132.32V150c0,4.31-.91,7.81-2.66,10.11l-.15.2a10.34,10.34,0,0,1-1.13.09,15,15,0,0,1-7.2-2.27c-10.82-6.24-19.94-22.83-19.95-36.23V104.21c0-2,.28-7.12,2.78-10.28a4.85,4.85,0,0,1,.57-.09,5.54,5.54,0,0,1,.59,0,15,15,0,0,1,7.21,2.27C222.52,102.33,231.65,118.92,231.65,132.32Z" style="fill:#fff;opacity:0.6000000000000001"></path><path d="M207.8,124.87c1.52,2.31,3,4.67,4.41,7s2.82,4.76,4.23,7.14,2.75,4.81,4.08,7.24,2.64,4.86,3.89,7.34c-1.53-2.32-3-4.68-4.42-7s-2.82-4.77-4.23-7.15-2.74-4.8-4.07-7.23S209,127.34,207.8,124.87Z" style="fill:#fff"></path><path d="M216.13,128.64c.87,1.27,1.68,2.56,2.49,3.86s1.56,2.63,2.35,3.94,1.51,2.65,2.23,4,1.44,2.7,2.1,4.08c-.87-1.26-1.68-2.55-2.49-3.85s-1.56-2.63-2.35-3.94-1.51-2.66-2.23-4S216.79,130,216.13,128.64Z" style="fill:#fff"></path><path d="M206.91,134c.87,1.26,1.68,2.56,2.48,3.86s1.57,2.62,2.35,3.93,1.51,2.66,2.24,4,1.44,2.7,2.1,4.08c-.87-1.26-1.69-2.56-2.49-3.86s-1.57-2.62-2.35-3.93-1.51-2.66-2.24-4S207.57,135.35,206.91,134Z" style="fill:#fff"></path><path d="M213.89,92.31c-12.22-7-22.12-.58-22.12,14.46v17.66c0,15,9.9,32.95,22.12,40S236,165,236,150V132.32C236,117.28,226.12,99.36,213.89,92.31ZM231.66,150c0,4.32-.92,7.82-2.66,10.12a6.85,6.85,0,0,1-5.72,2.83,14.81,14.81,0,0,1-7.2-2.27c-10.82-6.23-20-22.83-20-36.23V106.77c0-3,.61-13,8.39-13a14.92,14.92,0,0,1,7.2,2.27c10.82,6.25,19.95,22.84,19.95,36.24Z" style="fill:#455a64"></path><path d="M230.59,123.94l-34.33-19.83c.42-4.08,2.09-10.3,8.24-10.3a15,15,0,0,1,7.21,2.27C220.34,101.06,227.9,112.65,230.59,123.94Z" style="fill:#e0e0e0"></path><polygon points="209.5 108.96 209.5 106.88 214.92 110.01 214.92 112.09 209.5 108.96" style="fill:#455a64"></polygon></g><g id="window"><path d="M342.1,244.48a23.39,23.39,0,0,1-11.55-3.5h0c-14.8-8.55-26.85-30.32-26.85-48.53V168.63c0-9.34,3.08-16.26,8.67-19.48,5.12-3,11.77-2.37,18.73,1.64,14.8,8.55,26.84,30.32,26.84,48.53v23.82c0,9.34-3.08,16.26-8.67,19.48A14.17,14.17,0,0,1,342.1,244.48Zm-11-4.45c6.6,3.82,12.86,4.4,17.63,1.65,5.16-3,8.12-9.74,8.12-18.54V199.32c0-17.87-11.8-39.21-26.3-47.59-6.61-3.81-12.87-4.39-17.63-1.64-5.16,3-8.13,9.74-8.13,18.54v23.82C304.8,210.32,316.59,231.66,331.1,240Z" style="fill:#e0e0e0"></path><path d="M330.82,159.82c-4.74-2.74-9.14-3.44-12.74-2.4h0l0,0c-.35.11-.7.23-1,.36s-.66.29-1,.47a11,11,0,0,0-2.64,2,14.09,14.09,0,0,0-1.13,1.29,16.27,16.27,0,0,0-2.56,5.25c-.05.18-.1.36-.14.54a22.18,22.18,0,0,0-.67,3.67c0,.24-.05.48-.07.72s-.06.75-.07,1.15c0,.18,0,.38,0,.56s0,.57,0,.85v17.67c0,15,9.9,32.95,22.12,40a19,19,0,0,0,9.39,2.86l.69,0c.23,0,.46,0,.69-.06a12,12,0,0,0,2-.39l.56-.2c.22-.07.44-.15.65-.24l.52-.25.6-.31.56-.35a6.3,6.3,0,0,0,.53-.37c.18-.13.34-.28.51-.42,3.36-2.82,5.4-7.88,5.4-14.71V199.83C352.94,184.78,343,166.87,330.82,159.82Zm17.76,57.66c0,4.32-.92,7.82-2.66,10.12l-.15.2a10.34,10.34,0,0,1-1.13.09,15,15,0,0,1-7.2-2.27c-10.82-6.24-19.95-22.83-20-36.23V171.72c0-2,.29-7.12,2.78-10.28a5,5,0,0,1,.58-.09,5.54,5.54,0,0,1,.59,0,14.88,14.88,0,0,1,7.21,2.27c10.81,6.25,19.94,22.84,19.94,36.24Z" style="fill:#37474f"></path><path d="M348.58,199.83v17.65c0,4.32-.92,7.82-2.66,10.12l-.15.2a10.34,10.34,0,0,1-1.13.09,15,15,0,0,1-7.2-2.27c-10.82-6.24-19.95-22.83-20-36.23V171.72c0-2,.29-7.12,2.78-10.28a5,5,0,0,1,.58-.09,5.54,5.54,0,0,1,.59,0,14.88,14.88,0,0,1,7.21,2.27C339.45,169.84,348.58,186.43,348.58,199.83Z" style="fill:#BA68C8"></path><path d="M348.58,199.83v17.65c0,4.32-.92,7.82-2.66,10.12l-.15.2a10.34,10.34,0,0,1-1.13.09,15,15,0,0,1-7.2-2.27c-10.82-6.24-19.95-22.83-20-36.23V171.72c0-2,.29-7.12,2.78-10.28a5,5,0,0,1,.58-.09,5.54,5.54,0,0,1,.59,0,14.88,14.88,0,0,1,7.21,2.27C339.45,169.84,348.58,186.43,348.58,199.83Z" style="fill:#fff;opacity:0.6000000000000001"></path><path d="M324.73,192.37c1.52,2.32,3,4.68,4.41,7s2.82,4.77,4.23,7.15,2.75,4.81,4.08,7.23,2.64,4.87,3.88,7.35c-1.52-2.32-3-4.68-4.41-7s-2.82-4.77-4.23-7.15-2.74-4.8-4.07-7.23S326,194.85,324.73,192.37Z" style="fill:#fff"></path><path d="M333.06,196.15c.87,1.27,1.68,2.56,2.49,3.86s1.56,2.63,2.35,3.94,1.51,2.65,2.23,4,1.44,2.7,2.1,4.08c-.87-1.26-1.68-2.55-2.49-3.85s-1.57-2.63-2.35-3.94-1.51-2.66-2.23-4S333.72,197.54,333.06,196.15Z" style="fill:#fff"></path><path d="M323.84,201.48c.86,1.26,1.68,2.56,2.48,3.86s1.57,2.62,2.35,3.93,1.51,2.66,2.24,4,1.44,2.69,2.09,4.08c-.87-1.26-1.68-2.56-2.48-3.86s-1.57-2.62-2.35-3.94-1.51-2.65-2.24-4S324.49,202.86,323.84,201.48Z" style="fill:#fff"></path><path d="M330.82,159.82c-12.22-7.06-22.12-.58-22.12,14.46v17.66c0,15,9.9,32.95,22.12,40s22.13.59,22.13-14.45V199.83C353,184.79,343.05,166.87,330.82,159.82Zm17.76,57.67c0,4.31-.91,7.81-2.66,10.12a6.82,6.82,0,0,1-5.71,2.83,15,15,0,0,1-7.21-2.27c-10.81-6.23-19.94-22.83-19.95-36.23V174.28c0-3,.61-13,8.39-13a15,15,0,0,1,7.2,2.27c10.82,6.25,19.94,22.84,19.94,36.24Z" style="fill:#455a64"></path><path d="M347.52,191.45l-34.33-19.83c.42-4.09,2.09-10.3,8.24-10.3a14.88,14.88,0,0,1,7.21,2.27C337.27,168.57,344.83,180.16,347.52,191.45Z" style="fill:#e0e0e0"></path><polygon points="326.43 176.47 326.43 174.39 331.85 177.52 331.85 179.6 326.43 176.47" style="fill:#455a64"></polygon></g></g></g><g id="Signs"><g id="seats-signal"><path d="M298.19,83.36l-3.38-2c-.83-.48-1.5.33-1.5,1.79v5l6.38,3.68v-5A4.4,4.4,0,0,0,298.19,83.36Z" style="fill:#e0e0e0"></path><path d="M298.27,79.62c0,1.51-.79,2.27-1.77,1.71a4.68,4.68,0,0,1-1.77-3.75c0-1.51.79-2.27,1.77-1.7A4.65,4.65,0,0,1,298.27,79.62Z" style="fill:#e0e0e0"></path><path d="M316.7,99.87s0-.11,0-.25l1.63-8.87c0-.23.22-.25.54-.07l.52.3a1,1,0,0,1,.55.7l1.62,10.74c0,.15,0,.25,0,.28,0,.2-.14.22-.41.07l-.4-.23c-.28-.17-.44-.35-.46-.56L320,99.7l-1.73-1-.32,1.91c0,.18-.16.2-.42,0l-.4-.23C316.85,100.26,316.7,100.07,316.7,99.87Zm3.12-1.9-.54-3.87c0-.35-.08-.73-.11-1.15l-.06,0c0,.38-.07.72-.11,1l-.53,3.25Z" style="fill:#e0e0e0"></path><path d="M322.41,106.48l-6.52-3.76c-1.27-.73-2.3-2.91-2.3-4.86v-10c0-2,1-2.94,2.3-2.21l6.52,3.76c1.26.73,2.29,2.91,2.29,4.86v10C324.7,106.22,323.67,107.21,322.41,106.48Zm-6.52-19.56c-.8-.47-1.45.16-1.45,1.39v10a3.83,3.83,0,0,0,1.45,3.07l6.52,3.77c.8.46,1.45-.17,1.45-1.4v-10a3.83,3.83,0,0,0-1.45-3.07Z" style="fill:#e0e0e0"></path><path d="M333.19,109.61l-3.51-2a3.88,3.88,0,0,1-1.47-3.1V97.7c0-1.24.66-1.88,1.47-1.41l3.51,2a3.88,3.88,0,0,1,1.47,3.1v6.78C334.66,109.44,334,110.08,333.19,109.61Zm-3.51-11.93c-.31-.18-.57.06-.57.54V105a1.49,1.49,0,0,0,.57,1.19l3.51,2c.31.18.57-.06.57-.54V100.9a1.49,1.49,0,0,0-.57-1.19Z" style="fill:#e0e0e0"></path><path d="M332.52,105.8v-4.45a2,2,0,0,0-.93-1.56l-1.6-.93c-.51-.29-.93-.07-.93.49v4.46a2,2,0,0,0,.93,1.56l1.6.92C332.11,106.59,332.52,106.37,332.52,105.8Z" style="fill:#e0e0e0"></path><path d="M306.43,95.59a2.54,2.54,0,0,1-.08-.7v-.3a1.62,1.62,0,0,1,.08-.62c.05-.11.14-.12.26,0l1.52.88V85.08l-1.58-.53c-.13-.07-.23-.29-.28-.65a6.18,6.18,0,0,1-.09-1q0-.4.3-.33l2.82.78a1,1,0,0,1,.32.33.79.79,0,0,1,.17.42V95.75l1.23.71a.64.64,0,0,1,.27.36,2.3,2.3,0,0,1,.08.72v.3a1.47,1.47,0,0,1-.08.62c-.06.1-.15.11-.27,0L306.69,96A.58.58,0,0,1,306.43,95.59Z" style="fill:#e0e0e0"></path><path d="M238.42,56.17V46.69a.6.6,0,0,1,.08-.38c.05-.06.14-.05.25,0l2.62,1.51q.24.13.24.78V49q0,.64-.24.51l-1.66-1v2.59l1.54.89q.24.15.24.78v.39c0,.43-.08.6-.24.5l-1.54-.89v4.1c0,.15,0,.24-.11.26s-.21,0-.38-.11l-.3-.17A.84.84,0,0,1,238.42,56.17Z" style="fill:#e0e0e0"></path><path d="M242.52,58.54V48.9c0-.3.17-.35.5-.16l.31.19a.8.8,0,0,1,.49.72v9.63c0,.3-.16.36-.49.17l-.31-.18A.85.85,0,0,1,242.52,58.54Z" style="fill:#e0e0e0"></path><path d="M245,60V50.51a.59.59,0,0,1,.08-.37c.06-.06.14-.06.26,0l1.56.9a4.18,4.18,0,0,1,1.94,4c0,1.18-.3,1.85-.91,2v.06a5.51,5.51,0,0,1,.66,2l.58,3.21a.36.36,0,0,1,0,.11.38.38,0,0,1,0,.1c0,.23-.17.24-.52,0l-.28-.16a.92.92,0,0,1-.51-.63l-.53-3.17a3.42,3.42,0,0,0-.26-.86,1.27,1.27,0,0,0-.46-.46l-.36-.21v3.69c0,.29-.17.33-.52.13l-.26-.15A.84.84,0,0,1,245,60Zm2-4.37a.31.31,0,0,0,.45-.14,2,2,0,0,0,.18-1,3.16,3.16,0,0,0-.17-1.16,1.23,1.23,0,0,0-.49-.61l-.66-.38v2.86Z" style="fill:#e0e0e0"></path><path d="M250.48,63.43a3.76,3.76,0,0,1-.69-1,2.55,2.55,0,0,1-.08-.28,1,1,0,0,1,0-.26,2.09,2.09,0,0,1,.11-.67c.08-.21.17-.29.27-.23a.75.75,0,0,1,.19.22l.16.24a3,3,0,0,0,.9.94.61.61,0,0,0,.63.06c.17-.1.26-.36.26-.78a2.54,2.54,0,0,0-.23-1.1,8.64,8.64,0,0,0-.7-1.14,10.23,10.23,0,0,1-.81-1.28,5.81,5.81,0,0,1-.5-1.26,5.87,5.87,0,0,1-.18-1.5,2.2,2.2,0,0,1,.57-1.79,1.24,1.24,0,0,1,1.46.08,3.72,3.72,0,0,1,.68.53,3.77,3.77,0,0,1,.56.69.91.91,0,0,1,.13.48,2.27,2.27,0,0,1-.1.67c-.07.23-.15.32-.25.26a1.67,1.67,0,0,1-.22-.23,2.86,2.86,0,0,0-.72-.66c-.28-.15-.48-.17-.62,0a.87.87,0,0,0-.21.66,2.83,2.83,0,0,0,.13.83,3.48,3.48,0,0,0,.3.64l.62.91a8.57,8.57,0,0,1,1,1.83,5.71,5.71,0,0,1,.32,2,3.66,3.66,0,0,1-.23,1.43,1.12,1.12,0,0,1-.71.7,1.5,1.5,0,0,1-1.13-.25A4,4,0,0,1,250.48,63.43Z" style="fill:#e0e0e0"></path><path d="M255.19,65.85V57.48L254,56.8a.44.44,0,0,1-.2-.27,1.73,1.73,0,0,1-.06-.51v-.39a1.14,1.14,0,0,1,.06-.45c0-.09.11-.1.2,0l3.66,2.12a.49.49,0,0,1,.2.26,1.79,1.79,0,0,1,.06.53v.39a1.1,1.1,0,0,1-.06.45c-.05.08-.11.09-.2,0l-1.18-.69V66.6c0,.29-.17.34-.5.14l-.31-.17A.82.82,0,0,1,255.19,65.85Z" style="fill:#e0e0e0"></path><path d="M260.37,68.06a12.88,12.88,0,0,1-.61-4.4A7,7,0,0,1,260.4,60c.42-.63,1.08-.69,2-.18a3.41,3.41,0,0,1,.9.71,1,1,0,0,1,.2.34,1.32,1.32,0,0,1,.05.41,2.57,2.57,0,0,1-.11.78c-.08.22-.17.26-.29.11a2.62,2.62,0,0,0-.7-.61.62.62,0,0,0-1,.31,6.67,6.67,0,0,0-.32,2.52,10.26,10.26,0,0,0,.32,2.91,2.44,2.44,0,0,0,1,1.48,1.64,1.64,0,0,0,.38.16l.36,0,.09,0a.74.74,0,0,1,.25.48,3.87,3.87,0,0,1,.08.86.69.69,0,0,1,0,.32c0,.08-.1.11-.21.11a1.08,1.08,0,0,1-.43-.07,2.75,2.75,0,0,1-.57-.25A4.47,4.47,0,0,1,260.37,68.06Z" style="fill:#e0e0e0"></path><path d="M264.5,71.5a1.19,1.19,0,0,1-.07-.47V61.55c0-.29.16-.34.49-.15l.3.18a1.14,1.14,0,0,1,.38.32.67.67,0,0,1,.12.39v8.37l1.64,1a.44.44,0,0,1,.2.27,2.34,2.34,0,0,1,.05.52v.38a1.57,1.57,0,0,1-.05.46c0,.08-.11.09-.2,0l-2.6-1.5A.64.64,0,0,1,264.5,71.5Z" style="fill:#e0e0e0"></path><path d="M267.82,73.28a1.52,1.52,0,0,1,0-.25l1.58-8.65c0-.23.22-.25.53-.07l.51.29a1,1,0,0,1,.53.68l1.58,10.49c0,.14,0,.23,0,.26,0,.2-.13.22-.4.07l-.38-.22a.82.82,0,0,1-.46-.55L271,73.11l-1.68-1L269.05,74c0,.17-.17.19-.42,0l-.39-.22Q267.82,73.57,267.82,73.28Zm3-1.86-.53-3.77c0-.35-.08-.72-.11-1.13l-.05,0q0,.56-.12,1l-.51,3.18Z" style="fill:#e0e0e0"></path><path d="M273.72,76.85a3.71,3.71,0,0,1-.68-.95,2.9,2.9,0,0,1-.09-.28,1,1,0,0,1,0-.26,1.81,1.81,0,0,1,.12-.67c.07-.21.16-.29.26-.23a.75.75,0,0,1,.19.22l.17.24a2.77,2.77,0,0,0,.9.93.58.58,0,0,0,.62.07c.17-.1.26-.36.26-.78a2.54,2.54,0,0,0-.23-1.1,7.2,7.2,0,0,0-.7-1.14,10.23,10.23,0,0,1-.81-1.28,5.68,5.68,0,0,1-.49-1.27,5.8,5.8,0,0,1-.18-1.49,2.2,2.2,0,0,1,.56-1.79,1.24,1.24,0,0,1,1.46.08,3.08,3.08,0,0,1,.68.53,3.77,3.77,0,0,1,.56.69.92.92,0,0,1,.14.48,2.29,2.29,0,0,1-.11.67c-.07.23-.15.32-.24.26a1.51,1.51,0,0,1-.23-.23,2.7,2.7,0,0,0-.72-.66c-.27-.15-.48-.17-.62,0a.91.91,0,0,0-.21.66,2.95,2.95,0,0,0,.44,1.47c.11.17.31.47.61.9a8.86,8.86,0,0,1,1,1.84,5.48,5.48,0,0,1,.33,2,3.64,3.64,0,0,1-.24,1.43,1.09,1.09,0,0,1-.71.7,1.52,1.52,0,0,1-1.12-.25A4,4,0,0,1,273.72,76.85Z" style="fill:#e0e0e0"></path><path d="M278,79.3a3.76,3.76,0,0,1-.68-1,2.9,2.9,0,0,1-.09-.28,1,1,0,0,1,0-.26,1.85,1.85,0,0,1,.12-.67c.08-.21.16-.29.26-.23s.11.1.19.22.14.21.17.24a2.81,2.81,0,0,0,.9.94.59.59,0,0,0,.62.06c.17-.1.26-.36.26-.78a2.57,2.57,0,0,0-.23-1.1,7.66,7.66,0,0,0-.7-1.13,11.92,11.92,0,0,1-.81-1.28,6.08,6.08,0,0,1-.49-1.27,5.82,5.82,0,0,1-.18-1.5,2.21,2.21,0,0,1,.56-1.78,1.24,1.24,0,0,1,1.46.07,3.82,3.82,0,0,1,.68.53,3.77,3.77,0,0,1,.56.69,1,1,0,0,1,.14.49,2.23,2.23,0,0,1-.11.66q-.1.35-.24.27a1.42,1.42,0,0,1-.22-.24,2.65,2.65,0,0,0-.73-.65c-.27-.16-.48-.17-.61,0a.87.87,0,0,0-.21.66,2.49,2.49,0,0,0,.13.83,3.19,3.19,0,0,0,.3.64c.11.18.32.48.61.91a8.57,8.57,0,0,1,1,1.83,5.5,5.5,0,0,1,.33,2,3.71,3.71,0,0,1-.24,1.43,1.1,1.1,0,0,1-.71.69,1.48,1.48,0,0,1-1.12-.25A4.48,4.48,0,0,1,278,79.3Z" style="fill:#e0e0e0"></path><path d="M338.92,120.64a2.31,2.31,0,0,1-1.14-.33L288.91,92.09a5.8,5.8,0,0,1-2.48-4.69V67.5a2.43,2.43,0,0,1,1-2.23,1.91,1.91,0,0,1,2,.11L338.28,93.6a5.8,5.8,0,0,1,2.48,4.69v19.9a2.43,2.43,0,0,1-1,2.23A1.58,1.58,0,0,1,338.92,120.64ZM288.28,66.05a.64.64,0,0,0-.33.08,1.57,1.57,0,0,0-.52,1.37V87.4a4.88,4.88,0,0,0,2,3.82l48.87,28.22a1,1,0,0,0,1,.12,1.57,1.57,0,0,0,.52-1.37V98.29a4.86,4.86,0,0,0-2-3.82L288.91,66.25A1.38,1.38,0,0,0,288.28,66.05Z" style="fill:#e0e0e0"></path></g></g><g id="Shadows"><ellipse id="Shadow" cx="401.17" cy="417.82" rx="59.8" ry="34.52" style="fill:#e0e0e0"></ellipse><path id="shadow" d="M250.25,342.67l-100.12,57.8c-4.67,2.7-12.84,2.36-18.24-.75l-97.5-56.29c-5.4-3.12-6-7.84-1.31-10.54l100.12-57.8c4.67-2.7,12.84-2.36,18.24.76l97.5,56.29C254.34,335.25,254.93,340,250.25,342.67Z" style="fill:#e0e0e0"></path><path id="shadow" d="M260.62,457.35,195.1,419.5a1.47,1.47,0,0,1,0-2.79l116.14-67.07a5.32,5.32,0,0,1,4.82,0l65.52,37.85a1.47,1.47,0,0,1,0,2.79L265.44,457.35A5.32,5.32,0,0,1,260.62,457.35Z" style="fill:#e0e0e0"></path><path id="shadow" d="M138.94,421.28l-12.88,7.44c-2.16,1.24-5.93,1.08-8.42-.35l-63.56-36.7c-2.49-1.44-2.76-3.61-.6-4.86l12.88-7.43c2.15-1.25,5.92-1.09,8.41.34l63.56,36.7C140.83,417.86,141.1,420,138.94,421.28Z" style="fill:#e0e0e0"></path></g><g id="character-1"><g id="Character"><path d="M140.12,365.56l85-49a44.27,44.27,0,0,1,0,27.41l-85,49Z" style="fill:#455a64"></path><path d="M47.06,339.23,140.12,393v-27.4L47.06,311.83C44.59,321.66,44.38,330.85,47.06,339.23Z" style="fill:#263238"></path><polygon points="140.12 365.56 225.14 316.52 132.07 262.79 47.06 311.83 140.12 365.56" style="fill:#37474f"></polygon><path d="M148.11,276.26,207,310.2c4.54,2.62,11.9,2.62,16.44,0l4.78-2.77c4.54-2.62,8.22-9,8.22-14.24V245.56c0-5.24-3.68-11.62-8.22-14.24l-58.86-33.93c-4.54-2.62-11.9-2.62-16.44,0l-4.79,2.76c-4.54,2.62-8.22,9-8.22,14.24V262C139.89,267.27,143.57,273.64,148.11,276.26Z" style="fill:#BA68C8"></path><path d="M148.11,276.26,207,310.2c4.54,2.62,11.9,2.62,16.44,0l4.78-2.77c4.54-2.62,8.22-9,8.22-14.24V245.56c0-5.24-3.68-11.62-8.22-14.24l-58.86-33.93c-4.54-2.62-11.9-2.62-16.44,0l-4.79,2.76c-4.54,2.62-8.22,9-8.22,14.24V262C139.89,267.27,143.57,273.64,148.11,276.26Z" style="fill:#fff;opacity:0.65"></path><path d="M212.78,249.71,234,237.45a16.8,16.8,0,0,1,2.4,8.1V293.2c0,5.23-3.69,11.61-8.22,14.23l-4.79,2.76c-4.26,2.46-11,2.6-15.56.46,4.13,1.87,7.34-.31,7.34-5.2V257.81A16.76,16.76,0,0,0,212.78,249.71Z" style="fill:#BA68C8;opacity:0.30000000000000004"></path><path d="M229.1,296.89l-5.66,3.26c-1.2.69-2.17,0-2.17-1.64V255.09a5.19,5.19,0,0,1,2.17-4.14l5.66-3.26c1.19-.69,2.16,0,2.16,1.64v43.41A5.21,5.21,0,0,1,229.1,296.89Z" style="fill:#BA68C8"></path><path d="M207,243.58l-58.87-33.94c-4.54-2.62-8.22-.49-8.22,4.75V262c0,5.24,3.68,11.61,8.22,14.23L207,310.2c4.54,2.62,8.22.49,8.22-4.75V257.81C215.2,252.57,211.52,246.2,207,243.58Z" style="fill:#BA68C8"></path><path d="M207,243.58l-58.87-33.94c-4.54-2.62-8.22-.49-8.22,4.75V262c0,5.24,3.68,11.61,8.22,14.23L207,310.2c4.54,2.62,8.22.49,8.22-4.75V257.81C215.2,252.57,211.52,246.2,207,243.58Z" style="fill:#fff;opacity:0.35000000000000003"></path><path d="M228.2,231.32l-58.86-33.93h0c8.13,5,20.09,12.18,28.42,17.11,9.81,6,20.07,11.38,29.79,17.53a17.59,17.59,0,0,1,6.37,6.86,16.08,16.08,0,0,1,1.76,6.63c0,1.35,0,4.82,0,6.22.1,12.9.33,28.59.71,41.45V245.56C236.42,240.32,232.74,233.94,228.2,231.32Z" style="fill:#fff;opacity:0.55"></path><path d="M163.23,237.25l-19.09-82.7c-2.2-8.57-8.73-16-17.64-20.08a3.52,3.52,0,0,0-3.25.1L45,179.83a2.55,2.55,0,0,0-1.32,2.65L59,281.5,75.31,289a7.55,7.55,0,0,0,7-.2l78.22-45.26A5.52,5.52,0,0,0,163.23,237.25Z" style="fill:#BA68C8"></path><path d="M163.23,237.25l-19.09-82.7c-2.2-8.57-8.73-16-17.64-20.08a3.52,3.52,0,0,0-3.25.1L45,179.83a2.55,2.55,0,0,0-1.32,2.65L59,281.5,75.31,289a7.55,7.55,0,0,0,7-.2l78.22-45.26A5.52,5.52,0,0,0,163.23,237.25Z" style="fill:#fff;opacity:0.45"></path><polygon points="95.54 215.13 74.58 273.92 74.58 283.6 95.54 215.13" style="fill:#BA68C8;opacity:0.55"></polygon><polygon points="130.75 194.8 157.94 214.35 158.9 218.49 130.75 194.8" style="fill:#BA68C8;opacity:0.55"></polygon><path d="M126.5,134.47a3.52,3.52,0,0,0-3.25.1L45,179.83a2.55,2.55,0,0,0-1.32,2.65l2.94,19.59,94.48-54.67A32.74,32.74,0,0,0,126.5,134.47Z" style="fill:#fff;opacity:0.30000000000000004"></path><path d="M59,281.5l-15.24-99c-.34-2.27,2.24-3.82,4.57-2.76h0c8.91,4.09,15.43,11.52,17.64,20.09L85,282.5c1.3,5.08-4.43,8.91-9.71,6.49Z" style="fill:#BA68C8"></path><path d="M59,281.5l-15.24-99c-.34-2.27,2.24-3.82,4.57-2.76h0c8.91,4.09,15.43,11.52,17.64,20.09L85,282.5c1.3,5.08-4.43,8.91-9.71,6.49Z" style="fill:#fff;opacity:0.35000000000000003"></path><path d="M222.12,267.83l-44.25-23.59c-5.35-2.86-13.83-2.77-18.94.19L93.44,282.32c-2.54,1.47-3.76,3.36-3.71,5.25h0v.05h0l1.76,42.78h0c.08,1.91,1.46,3.8,4.14,5.23l41.22,22c5.35,2.85,13.84,2.77,19-.19l62.59-36.22c2.28-1.31,3.49-3,3.68-4.67h0l4.17-42.89h0C226.45,271.54,225.08,269.41,222.12,267.83Z" style="fill:#BA68C8"></path><path d="M222.12,267.83l-44.25-23.59c-5.35-2.86-13.83-2.77-18.94.19L93.44,282.32c-2.54,1.47-3.76,3.36-3.71,5.25h0v.05h0l1.76,42.78h0c.08,1.91,1.46,3.8,4.14,5.23l41.22,22c5.35,2.85,13.84,2.77,19-.19l62.59-36.22c2.28-1.31,3.49-3,3.68-4.67h0l4.17-42.89h0C226.45,271.54,225.08,269.41,222.12,267.83Z" style="fill:#fff;opacity:0.45"></path><path d="M159.5,244.13c-.19.1-.39.19-.57.3L93.44,282.32c-2.54,1.47-3.76,3.36-3.71,5.25h0v.05l1.76,42.78h0c.08,1.91,1.46,3.8,4.14,5.23l41.22,22a20.42,20.42,0,0,0,9.56,2.09l4-41.41Z" style="fill:#BA68C8;opacity:0.30000000000000004"></path><path d="M158.93,244.43,93.44,282.32c-5.11,3-4.92,7.67.43,10.52l44.25,23.6c5.36,2.85,13.84,2.77,18.95-.19l65.49-37.89c5.11-3,4.92-7.67-.44-10.53l-44.25-23.59C172.52,241.38,164,241.47,158.93,244.43Z" style="fill:#BA68C8"></path><path d="M158.93,244.43,93.44,282.32c-5.11,3-4.92,7.67.43,10.52l44.25,23.6c5.36,2.85,13.84,2.77,18.95-.19l65.49-37.89c5.11-3,4.92-7.67-.44-10.53l-44.25-23.59C172.52,241.38,164,241.47,158.93,244.43Z" style="fill:#fff;opacity:0.6000000000000001"></path><path d="M122.87,155.31h0l-1.11-4.81a18.32,18.32,0,0,0-8.7-11.76l-7.84-4.52a4.14,4.14,0,0,0-4.18,0h0L62,156.79v0a4.17,4.17,0,0,0-2,4.27l1.43,9.29,4-2.3a3.58,3.58,0,0,1,3.25-.1h0c8.91,4.09,15.43,11.51,17.64,20.09l39-22.57Z" style="fill:#BA68C8"></path><path d="M122.87,155.31h0l-1.11-4.81a18.32,18.32,0,0,0-8.7-11.76l-7.84-4.52a4.14,4.14,0,0,0-4.18,0h0L62,156.79v0a4.17,4.17,0,0,0-2,4.27l1.43,9.29,4-2.3a3.58,3.58,0,0,1,3.25-.1h0c8.91,4.09,15.43,11.51,17.64,20.09l39-22.57Z" style="fill:#fff;opacity:0.45"></path><path d="M113.06,138.74l-7.84-4.52a4.14,4.14,0,0,0-4.18,0h0L62,156.79v0a4.17,4.17,0,0,0-2,4.27l1.43,9.29,4-2.3a3.58,3.58,0,0,1,3.25-.1h0c1,.45,1.91.94,2.82,1.46l46.37-26.77A18.33,18.33,0,0,0,113.06,138.74Z" style="fill:#fff;opacity:0.30000000000000004"></path><path d="M74.08,161.3l-7.84-4.52a4.22,4.22,0,0,0-6.28,4.3l1.43,9.29,4-2.3a3.58,3.58,0,0,1,3.25-.1h0c8.91,4.09,15.43,11.51,17.64,20.09l-3.46-15A18.39,18.39,0,0,0,74.08,161.3Z" style="fill:#BA68C8"></path><path d="M74.08,161.3l-7.84-4.52a4.22,4.22,0,0,0-6.28,4.3l1.43,9.29,4-2.3a3.58,3.58,0,0,1,3.25-.1h0c8.91,4.09,15.43,11.51,17.64,20.09l-3.46-15A18.39,18.39,0,0,0,74.08,161.3Z" style="fill:#fff;opacity:0.35000000000000003"></path><g style="opacity:0.55"><path d="M123.42,157.66c2.48,9.49,5,19.8,7.35,29.36l.51,2.11a13.56,13.56,0,0,1-2,10.83c-1.64,2.54-4.41,4.11-6.92,5.54-.92.55-16.57,9.65-16.81,9.8-6.65,4.37-14.67.12-15.55-7.63-1.06-4.71-2.74-12.16-3.76-16.88-1.48-10-8.93-18.46-17.61-22.62a3.65,3.65,0,0,0-3.71.3l-3.49,1.9,3.38-2.09a3.86,3.86,0,0,1,3.91-.48c9.09,3.73,17,12.53,18.79,22.68.66,2.67,2.36,9.86,3,12.62.64,2.27,1.16,6.07,2.23,8.11a8.27,8.27,0,0,0,12,2.67l1.88-1.08,15-8.62c2.48-1.39,4.94-2.66,6.54-5a12.42,12.42,0,0,0,2-9.77l-.45-2.11c-2.12-9.62-4.33-20-6.27-29.61Z" style="fill:#BA68C8"></path></g><g id="character"><g id="Bottom"><polygon points="175.32 362.3 182.02 360.9 180.62 356.29 176.16 359.31 175.32 362.3"></polygon><path d="M170.54,349.86s-.89,4.09-1.14,5.38,4.65,6.18,5.92,7.06l.84-3c1,1.37,1.47,3,2.41,5.41.77,2,1.59,5.73,4.15,8.57,3.8,4.22,10.3,7.07,17.18,8.39s11.1.24,13.3-1,3.09-2.85,2.87-4.68S170.54,349.86,170.54,349.86Z" style="fill:#263238"></path><path d="M191.22,338.66l.46-2.38c1.28.16.89,3.65,2.28,7a62.82,62.82,0,0,0,7.81,13.95c6,7.48,11.66,12.46,14.34,15.82,3.59,4.5-4.71,9.48-15.9,7.09-5.56-1.18-15.07-5.54-17.35-9.28s-3.21-9.17-5.07-11.92-6.3-5.92-7.25-9.06c-.51-1.72.47-5.4,1.42-8.51.87-2.85,1.65-7.32,3.24-6.7l-.11,1.52c.47,1.38,1.7,3.73,6.1,5.19C183.39,342.09,190.09,343.34,191.22,338.66Z" style="fill:#37474f"></path><path d="M184.8,342c2.19.15,4.62-.2,5.82-2l0,0a5.51,5.51,0,0,0,.75,4.82c1.65,2.67,11.82,21.3,11.82,21.3s-9.74-15.57-11.62-18.51c-2.77-4.35-3.77-5-6.83-5.54Z" style="opacity:0.15"></path><path d="M186.94,346.89a.7.7,0,1,1-1.35-.36.7.7,0,0,1,1.35.36Z" style="opacity:0.15"></path><path d="M189.7,351.09a.7.7,0,0,1-.86.49.7.7,0,0,1,.36-1.35A.71.71,0,0,1,189.7,351.09Z" style="opacity:0.15"></path><path d="M192.46,355.29a.7.7,0,0,1-.86.49.7.7,0,0,1,.37-1.35A.7.7,0,0,1,192.46,355.29Z" style="opacity:0.15"></path><path d="M195.22,359.49a.7.7,0,1,1-.49-.86A.7.7,0,0,1,195.22,359.49Z" style="opacity:0.15"></path><path d="M198,363.69a.7.7,0,1,1-.49-.86A.7.7,0,0,1,198,363.69Z" style="opacity:0.15"></path><path d="M186.2,347a.25.25,0,0,1-.17-.11.28.28,0,0,1,.07-.39c.16-.11,4-2.8,8.28-1.88h0a.28.28,0,1,1-.13.54c-4.06-.87-7.8,1.76-7.83,1.79A.28.28,0,0,1,186.2,347Z" style="fill:#263238"></path><path d="M189,351.17a.25.25,0,0,1-.16-.11.28.28,0,0,1,.06-.39c.16-.12,4-2.81,8.28-1.88h0a.28.28,0,0,1,.21.33.28.28,0,0,1-.33.22c-4.06-.87-7.8,1.76-7.84,1.79A.31.31,0,0,1,189,351.17Z" style="fill:#263238"></path><path d="M191.72,355.38a.23.23,0,0,1-.16-.11.27.27,0,0,1,.06-.39c.16-.12,4-2.8,8.28-1.88h0a.28.28,0,0,1,.21.33.29.29,0,0,1-.34.22c-4.05-.87-7.8,1.76-7.83,1.79A.32.32,0,0,1,191.72,355.38Z" style="fill:#263238"></path><path d="M194.48,359.58a.26.26,0,0,1-.16-.11.27.27,0,0,1,.06-.39c.16-.12,4-2.81,8.28-1.88h0a.28.28,0,0,1,.21.33.29.29,0,0,1-.34.22c-4-.87-7.8,1.76-7.83,1.78A.28.28,0,0,1,194.48,359.58Z" style="fill:#263238"></path><path d="M197.24,363.78a.36.36,0,0,1-.16-.11.3.3,0,0,1,.06-.4c.16-.11,4-2.8,8.28-1.87h0a.28.28,0,0,1,.21.33.29.29,0,0,1-.34.22c-4.05-.88-7.79,1.76-7.83,1.78A.32.32,0,0,1,197.24,363.78Z" style="fill:#263238"></path><polygon points="194.41 384.94 200.79 381.81 198.19 377.54 194.48 381.73 194.41 384.94"></polygon><path d="M186.41,373.66s.15,4.33.23,5.7,6.26,5,7.77,5.58l.07-3.21c1.36,1.12,2.26,2.63,3.82,4.82,1.3,1.83,3.07,5.36,6.37,7.56,4.91,3.26,12.18,4.46,19.44,4s11.22-2.61,13.13-4.38,2.37-3.66,1.68-5.45S186.41,373.66,186.41,373.66Z" style="fill:#263238"></path><path d="M204.33,357.08l-.15-2.51c1.33-.17,1.84,3.44,4.09,6.43,3,4,7.39,9,11.43,12,8,6,14.93,9.54,18.49,12.24,4.77,3.6-2.31,10.74-14.17,11.21-5.89.24-16.58-1.7-19.84-4.88s-5.58-8.4-8.16-10.69-7.86-4.34-9.61-7.25c-1-1.6-.92-5.56-.76-8.93.15-3.09-.21-7.78,1.54-7.57l.28,1.56c.83,1.27,2.67,3.31,7.47,3.65C197.34,362.55,204.39,362.08,204.33,357.08Z" style="fill:#37474f"></path><path d="M198.75,362.13c2.23-.41,4.59-1.39,5.33-3.51a.43.43,0,0,1,0-.07,5.76,5.76,0,0,0,2,4.66c2.35,2.26,17.36,18.39,17.36,18.39S209.67,368.43,207,366c-3.9-3.66-5.07-4-8.3-3.82Z" style="fill:#263238"></path><path d="M202.14,366.46a.74.74,0,0,1-.74.72.73.73,0,0,1-.71-.74.71.71,0,0,1,.73-.71A.73.73,0,0,1,202.14,366.46Z" style="opacity:0.15"></path><path d="M206,370a.71.71,0,0,1-.73.71.73.73,0,0,1-.72-.73.74.74,0,0,1,.74-.72A.73.73,0,0,1,206,370Z" style="opacity:0.15"></path><path d="M209.85,373.49a.74.74,0,0,1-.74.72.73.73,0,0,1-.71-.74.71.71,0,0,1,.73-.71A.73.73,0,0,1,209.85,373.49Z" style="opacity:0.15"></path><path d="M213.7,377a.73.73,0,0,1-.74.71.71.71,0,0,1-.71-.73.73.73,0,0,1,.74-.72A.73.73,0,0,1,213.7,377Z" style="opacity:0.15"></path><path d="M217.55,380.52a.73.73,0,0,1-.73.72.74.74,0,0,1-.72-.74.73.73,0,0,1,.74-.71A.71.71,0,0,1,217.55,380.52Z" style="opacity:0.15"></path><path d="M201.42,366.75a.37.37,0,0,1-.2-.07.29.29,0,0,1,0-.41c.13-.16,3.28-3.84,7.85-4h0a.3.3,0,0,1,.3.28.28.28,0,0,1-.28.3c-4.31.17-7.39,3.78-7.43,3.81A.29.29,0,0,1,201.42,366.75Z" style="fill:#263238"></path><path d="M205.27,370.25a.26.26,0,0,1-.19-.07.29.29,0,0,1,0-.41c.14-.16,3.28-3.84,7.85-4h0a.29.29,0,0,1,0,.58c-4.3.17-7.39,3.78-7.42,3.81A.33.33,0,0,1,205.27,370.25Z" style="fill:#263238"></path><path d="M209.13,373.77a.36.36,0,0,1-.2-.06.3.3,0,0,1,0-.42c.13-.15,3.28-3.84,7.85-4h0a.3.3,0,0,1,.3.28.29.29,0,0,1-.28.3c-4.31.17-7.4,3.77-7.43,3.81A.25.25,0,0,1,209.13,373.77Z" style="fill:#263238"></path><path d="M213,377.29a.26.26,0,0,1-.19-.07.29.29,0,0,1,0-.41c.13-.16,3.28-3.84,7.85-4h0a.29.29,0,0,1,.29.28.3.3,0,0,1-.28.31c-4.3.16-7.39,3.77-7.42,3.8A.29.29,0,0,1,213,377.29Z" style="fill:#263238"></path><path d="M216.83,380.8a.3.3,0,0,1-.19-.07.29.29,0,0,1,0-.41c.13-.16,3.28-3.84,7.84-4h0a.29.29,0,0,1,.3.28.3.3,0,0,1-.28.3c-4.31.16-7.4,3.77-7.43,3.81A.29.29,0,0,1,216.83,380.8Z" style="fill:#263238"></path><path d="M205.07,327.27s2.4-7.67,5.76-17.79c3.42-10.29,5.78-19.25,5.49-25.36C216,277.7,211.59,270.59,197,259A326.58,326.58,0,0,0,169.34,239l-68.28,4.92c1.37,13.77,2.79,20.45,6.44,27.08,4.71,8.54,9.87,14.17,22.52,20.93,12.81,6.84,21.21,10.06,27.51,13.38s11.46,4.46,12.87,11.26c1.35,6.48,1.68,13,9.15,32.55,4.17,10.93,6,15.13,6,15.13s13.21,6.24,22.07-4.61C207.63,359.59,207,352.4,205.07,327.27Z" style="fill:#455a64"></path><path d="M179.06,253.79a119.93,119.93,0,0,1,23.58,18.83,55.52,55.52,0,0,1,7.71,9.25c1.46,2.51.8,5.58.59,8.3-.4,3.35-1,6.67-1.65,10q-2,9.87-4.71,19.58c1.41-6.56,2.81-13.12,4-19.72.79-4.92,1.84-9.89,1.75-14.87a7.34,7.34,0,0,0-1.8-4.32c-3.94-5.35-8.84-10-13.72-14.54a131.4,131.4,0,0,0-15.74-12.47Z" style="fill:#37474f"></path><path d="M150.38,268.71q11.34,7,22.25,14.68c6.27,4.6,12.9,8.91,18.28,14.59,3.55,4.43,5,10.13,6.37,15.46,1.07,4.32,2,8.66,2.84,13q2.44,13.11,4.09,26.34c-1.5-8.75-3-17.5-4.82-26.2-.91-4.33-1.85-8.67-3-13-1.43-5.3-2.84-10.74-6.25-15.08-5.26-5.64-11.87-9.91-18-14.58-7.17-5.24-14.48-10.28-21.82-15.28Z" style="fill:#37474f"></path><path d="M205.07,327.27c-2.09-18.45-3.49-24.72-5.16-28.6-4.31-10-30-26.09-39.21-32.22,4.6-2.87,8-6.33,10.37-14.24-.07,8.2-3.78,12.13-4.91,14.18,5.1,4,12.75,8.51,20.47,14.25,6.78,5,15.21,10.92,16.74,20.67C204.4,307.82,203.61,306.31,205.07,327.27Z" style="fill:#37474f"></path></g><g id="Top"><g id="Arm"><g id="arm"><path d="M233.09,235.81c-1.84-2.2-5.89-3.06-8.43-4.05a14.67,14.67,0,0,1-4.75-2.48c-.25-.23-.52-.55-.41-.88s.61-.43,1-.43c2.59,0,7.17.9,9-1.6a1.22,1.22,0,0,0,.27-.83c-.09-.62-.85-.85-1.46-.95a69.21,69.21,0,0,1-9.74-2.39,34.53,34.53,0,0,0-5.32-1.5c-3.39-.53-7.46.38-10.49-1.6s-23.94-15.5-23.94-15.5-9-14.76-15.43-24.5c-5.19-7.85-8.9-12.88-16.77-12.88h-2.12L146.57,190s8.5,13.89,14,22.55c5.28,8.26,6.87,7.74,14,11.06,6.37,3,14.11,5.37,20.46,8.11a66.82,66.82,0,0,1,7.73,4.65c2.51,1.59,7,3.85,9.62,5.21a16.37,16.37,0,0,0,3.21,1.27,8.12,8.12,0,0,0,4.49.46,2.9,2.9,0,0,0,1.63-1,10.88,10.88,0,0,0,2.45.56,4.58,4.58,0,0,0,2.45-.43,3.41,3.41,0,0,0,1.09-.87.7.7,0,0,1,.16-.14.45.45,0,0,1,.2,0c1.09.18,2.24.54,3.25-.09a2.24,2.24,0,0,0,1-1.25c0-.14.18-1.19-.09-1.19,1.07,0,1.68-1.42,1.25-2.39A3.06,3.06,0,0,0,233.09,235.81Z" style="fill:#b16668"></path><path d="M232.35,238.94l0,0Z" style="fill:#9a4a4d"></path><path d="M230.31,236.79a16.67,16.67,0,0,0-3.33-1.44c-2.31-.77-4.73-1.16-7-2-.09,0-.1.16,0,.19a60,60,0,0,0,6.85,2.33,18.39,18.39,0,0,1,2.93,1.24,17.09,17.09,0,0,1,1.51.84,5.36,5.36,0,0,1,1.08,1,1.09,1.09,0,0,0,.44-.1A7.87,7.87,0,0,0,230.31,236.79Z" style="fill:#9a4a4d"></path><path d="M219.81,239.66c-1.41-.61-4.17-1.55-5.61-2-.07,0-.09.11,0,.14,1.22.64,3.82,1.61,5.08,2.14a10.37,10.37,0,0,1,1.92,1,1.23,1.23,0,0,1,.63.8c0,.21,0,.41,0,.61l.47.14C222.58,241,221,240.16,219.81,239.66Z" style="fill:#9a4a4d"></path><path d="M228.21,241.44a2.44,2.44,0,0,0-.93-1.94,8.07,8.07,0,0,0-2.56-1.27L221.45,237c-1.07-.38-2.77-.81-3.84-1.17-.05,0-.07.09,0,.11,1.8.76,4.19,1.66,6,2.36.86.33,1.75.62,2.58,1a2.48,2.48,0,0,1,1.57,2,.32.32,0,0,0,.11.18s0-.05.06-.06a.45.45,0,0,1,.2,0l.09,0Z" style="fill:#9a4a4d"></path><path d="M217.33,229.05c-.58.14-1.11.39-1.69.51a16.28,16.28,0,0,1-1.7.28,9.14,9.14,0,0,1-2.81-.15,11.8,11.8,0,0,1-5.07-2.71c-.1-.09-.12.15-.08.21a7.81,7.81,0,0,0,5,3.25,9.25,9.25,0,0,0,3.4.08,6.37,6.37,0,0,0,3-1.28C217.44,229.19,217.42,229,217.33,229.05Z" style="fill:#9a4a4d"></path></g><path d="M197.81,215.55l5.95,3.81s-3.06.35-5.59,5.7c-2.38,5-1.27,8.38-1.27,8.38l-6.62-3A13.61,13.61,0,0,1,197.81,215.55Z" style="fill:#fafafa"></path><path d="M143.67,165.14c9.28,1.86,14.2,3.72,17.93,9.33s17.14,27.8,17.14,27.8l22.49,15s-4.14.53-6.56,5.53c-3,6.2-1.82,9.45-1.82,9.45s-20.83-8.31-24.94-10.29-4.92-4-7.47-7.37-15.55-24.31-15.55-24.31Z" style="fill:#263238"></path></g><g id="Chest"><path d="M125.91,165.75c-7.64,1.08-20,6.26-32.36,16.12-1.46,2.11-3.06,9.33-1.2,21.34,3.11,20,4.08,24.68,8.18,41s5.27,19.9,5.27,19.9c21.17,6.39,55.6-12.37,61.91-26.35-3.82-5.47-5.48-12.31-11.37-46.94-3-17.64-8.65-23.77-12.67-25.73C140.12,165.09,131.75,164.92,125.91,165.75Z" style="fill:#fafafa"></path></g><g id="Head"><path d="M111.86,159.5c-1.08-4.94-6.29-9.9-8.73-14.13s-3.79-7.27-3.73-11.21c0-2.34,1.34-5.57,3-6.31a10.84,10.84,0,0,1,7.3-13.89,37.11,37.11,0,0,0,4.71-1.56c1.84-.88,2.19-2.41,3.64-3.77,2.5-2.33,6.89-2.6,8.72.67,1.62-2.32,4-2.38,6.73-1.82a4.64,4.64,0,0,1,3.81,5.07c3.53-2.21,7,.2,7.43,2.32.32,1.56.05,2.91,1.15,4.27,1.23,1.53,3.43,1.4,4,.08.49,2.22-.31,4-2.74,4a5.1,5.1,0,0,1,.84,4.25,4.66,4.66,0,0,1-4,3.4,7.13,7.13,0,0,1-3.65,6.18c-3.59,1.93-7.63,2.69-11.55,3.7l-4.65,1.2c-.27.07-1.68.23-1.84.48Z" style="fill:#263238"></path><path d="M105.52,153.35c3.6,1.92,5.86-.46,5.86-.46l1,17.53c4.4,5.88,19.79,10.07,21.44,9.63,3.15-1.1,2.65-10.76-.16-13.39l-.06-3.32a18.88,18.88,0,0,0,3.72-.49c6-1.31,7.65-5.32,8.33-8.67a39.84,39.84,0,0,0-.39-16.45,14.85,14.85,0,0,1-.41-4.09,15.68,15.68,0,0,0-3.08-10.91c-1.08-1.37-3.26-3.4-4.68-1.14a6.39,6.39,0,0,1-4.47,2.69,14.07,14.07,0,0,1-5.32-.4c-1.75-.4-3.47-.93-5.25-1.17a3.83,3.83,0,0,0-2.57.34,2.86,2.86,0,0,0-1.13,2.4,34.06,34.06,0,0,0,.49,3.85,16.42,16.42,0,0,1,.18,4.14,7.6,7.6,0,0,1-3.76,5.82c.26,1.48.63,5.23-1.82,5.28-1.77,0-2-2.17-3.89-4s-6.16-2.18-7.65.77C99.76,145.4,101.58,151.24,105.52,153.35Z" style="fill:#b16668"></path><path d="M133.56,163.34c-6.69.31-12.46-.85-15.9-5.18a27,27,0,0,1-3.57-6.94s.38,5.23,2.58,8.85c1.7,2.78,6.86,5.89,17,5.33Z" style="fill:#9a4a4d"></path><path d="M128.72,137.87a1.86,1.86,0,0,1-1.76,2,1.88,1.88,0,0,1-1.9-1.85,1.83,1.83,0,1,1,3.66-.11Z" style="fill:#263238"></path><path d="M126.68,132.74l-3.57,2.32a2.22,2.22,0,0,1,.65-3A2.07,2.07,0,0,1,126.68,132.74Z" style="fill:#263238"></path><path d="M142.44,132.8l-4.08-1.34a2,2,0,0,1,2.63-1.41A2.26,2.26,0,0,1,142.44,132.8Z" style="fill:#263238"></path><path d="M142.52,136.56a1.83,1.83,0,1,1-1.89-1.84A1.86,1.86,0,0,1,142.52,136.56Z" style="fill:#263238"></path><path d="M141.32,143.64l-5.93,3L133,136.33C135.18,135.42,138.33,139.23,141.32,143.64Z" style="fill:#9a4a4d"></path><path d="M128.3,148.8l7.2,2a3.67,3.67,0,0,1-4.51,2.75A3.91,3.91,0,0,1,128.3,148.8Z" style="fill:#9a4a4d"></path><path d="M129.11,150a3.88,3.88,0,0,0-.9,0,3.87,3.87,0,0,0,2.78,3.51,3.45,3.45,0,0,0,1.19.1A3.42,3.42,0,0,0,129.11,150Z" style="fill:#ffa8a7"></path></g><g id="Tie"><path d="M137,182.43s2.65-6.6,2.37-8.72l-3.92-3.1-.34,8.83Z" style="fill:#37474f"></path><polygon points="132.53 180.16 126.14 177.11 121.68 181.04 131.62 184.1 132.53 180.16" style="fill:#37474f"></polygon><path d="M137.2,229.09c-1.61-19-3.14-37.28-3.92-41.86l3.19-.62c2.76,5.33,12,29.28,13.11,36.29.59,4.55-3,17.4-3,17.4S137.49,232.52,137.2,229.09Z" style="fill:#455a64"></path><path d="M136.83,187.32c-.15-.28-.25-.5-.36-.71h0l-3.19.62h0c.06.39.11.78.18,1.39A5.56,5.56,0,0,0,136.83,187.32Z" style="opacity:0.2"></path><path d="M132.14,180c1.37-.39,3-.69,3-.69a10.49,10.49,0,0,1,2.07,2.6,11.12,11.12,0,0,1-.71,4.74,3.86,3.86,0,0,1-3.19.62,10.76,10.76,0,0,1-2.59-3.41A10.86,10.86,0,0,1,132.14,180Z" style="fill:#455a64"></path><path d="M132.46,179.88c-.1,0-.21.27-.31.3-2.39-.93-2.8-1.29-3.37-1.05-1.09.46-3.16,5.48-3.63,7.08s-.35,1.56-2.59.45c-4.34-2.18-8.44-4.79-10.77-7.4a25.07,25.07,0,0,1-4.44-6.62s1.67-4.35,2.2-5.68c1-2.57,1-3.71,2.43-3.67l.16,1.68c.5,2.06,4,3.72,7.21,5.89s8.28,4,9.54,4.92A22.77,22.77,0,0,1,132.46,179.88Z" style="fill:#e6e6e6"></path><path d="M143.32,180.33c-.23.89-3.77-5.45-5.09-5.15-.64.13-1.86,2.13-2.82,4.19l-.91.09a20.79,20.79,0,0,0,.75-5.27c0-2.31-1.63-7.53-1.63-7.53l-.06-3.32c.35,0,.82,0,1.27-.09a31.84,31.84,0,0,1,2.33,2.3c1.7,1.86,4.29,4.81,5,7.31A22.63,22.63,0,0,1,143.32,180.33Z" style="fill:#e6e6e6"></path></g><path d="M134.83,163.25s6.64,9.5,10.3,30.39c5.25,30,10.07,50.28,18.29,59.1,0,0,7.75-9,8.31-13.79-5.17-6.56-7.31-10.09-10.06-23.52s-3.19-23.26-5.53-31.62-7-17.08-12.47-18.67Z" style="fill:#37474f"></path><path d="M110.16,165.33s.45,5.25,6.72,14.69,9.8,16.55,14.13,35.41c3.81,16.55,15.28,47.36,15.28,47.36s-15.56,10.74-41.09,5.92c-5.63-16.5-9.82-41.15-12.64-57.56a106.85,106.85,0,0,1-1-29.46s10.44-6.76,13.26-9.56A48,48,0,0,0,110.16,165.33Z" style="fill:#37474f"></path><g id="arm"><g id="arm"><path d="M136,202.07c2.89-3.49,4.42-4.95,6-5.83s6.74-4.71,8.82-5.82c1.33-.7,2.46,1.35,1,3.32-1.08,1.52-4.29,4-5.66,5.21s-3.52,5.73-3.52,5.73Z" style="fill:#9a4a4d"></path><path d="M82.07,196.71c1.65-8.25,3.94-11.35,9.4-14.71,6.85,4.61,9.55,23.41,9.55,23.41l2,22.93s20-8.22,22.05-10.33,6.73-10.54,8.38-13.12c2.23-3.52,3.79-3.52,5.33-3.67,5.08-.52,6.25-.39,7.45,0a2.25,2.25,0,0,1,1.43,1.63c1.34-.17,3.27-.7,4,1.33a5.58,5.58,0,0,1,.5,1.66,1.5,1.5,0,0,1,1,.26c1.39.95.61,5.68-.3,7-.64.94-1.8,1.33-3.4,1.52-1.36.15-1.08-1.31-1.08-1.31l-1.81.57c-3.28,3.78-2.09,9.33-7,11.87a37.87,37.87,0,0,0-6.11,2.85c-10.37,6.6-26.07,22.62-35.94,26-9.63,3.33-10.65-1.9-12.31-7.78C83.77,241.61,80.42,204.93,82.07,196.71Z" style="fill:#b16668"></path><path d="M147.71,202.84l-6.1.32,5.77-1.08A2.41,2.41,0,0,1,147.71,202.84Z" style="fill:#9a4a4d"></path><path d="M152.26,205.83l-6.9.84,6.72-1.61A3.48,3.48,0,0,1,152.26,205.83Z" style="fill:#9a4a4d"></path><path d="M147.66,212.49a2.62,2.62,0,0,0,.51-1.47,22.84,22.84,0,0,0,2.3-.75,6.75,6.75,0,0,0,.82-.48,2.56,2.56,0,0,0,.82-.85,2.18,2.18,0,0,1-.7,1,4.69,4.69,0,0,1-.92.6l-.17.9a1.41,1.41,0,0,1,.76.09,1.66,1.66,0,0,1,.79.71,2.08,2.08,0,0,0-.86-.55,1.44,1.44,0,0,0-.94.07,3,3,0,0,0-1.62,1.55l-1.81.57A14.49,14.49,0,0,0,147.66,212.49Z" style="fill:#9a4a4d"></path></g><path d="M119,220.81l4.63-2.12a14.46,14.46,0,0,0,1.81,7.31,14.65,14.65,0,0,0,4.78,5.57l-5.2,3.91S118.39,230.81,119,220.81Z" style="fill:#fafafa"></path><path d="M93,180.74c-8.41,5.59-11.13,8.46-11.63,18.48-.56,11.24.91,28.69,1.93,38.18s2.57,17.29,6.54,18.65,10.13-.31,17.69-5.83,19.62-15.93,19.62-15.93-3.21-1.12-5.32-6.25-1.81-8.33-1.81-8.33l-15.37,6.79s-.78-11.71-1.48-20.63C102.58,198.85,100.56,187.51,93,180.74Z" style="fill:#263238"></path><path d="M104.61,226.5c-5.49,2.55-11.7,8-12.73,16.39-.69-8.75,2.33-16.29,12.52-19.52Z"></path></g></g></g><path d="M53.35,331l58.87,33.93c4.54,2.62,11.9,2.62,16.43,0l4.79-2.76c4.54-2.62,8.22-9,8.22-14.24V300.27c0-5.24-3.68-11.61-8.22-14.23L74.58,252.1c-4.54-2.62-11.9-2.62-16.44,0l-4.79,2.77c-4.54,2.62-8.22,9-8.22,14.24v47.63C45.13,322,48.81,328.36,53.35,331Z" style="fill:#BA68C8"></path><path d="M53.35,331l58.87,33.93c4.54,2.62,11.9,2.62,16.43,0l4.79-2.76c4.54-2.62,8.22-9,8.22-14.24V300.27c0-5.24-3.68-11.61-8.22-14.23L74.58,252.1c-4.54-2.62-11.9-2.62-16.44,0l-4.79,2.77c-4.54,2.62-8.22,9-8.22,14.24v47.63C45.13,322,48.81,328.36,53.35,331Z" style="fill:#fff;opacity:0.65"></path><path d="M118,304.43l21.24-12.27a16.84,16.84,0,0,1,2.4,8.11v47.64c0,5.24-3.69,11.62-8.22,14.24l-4.79,2.76c-4.26,2.46-11,2.6-15.56.46,4.13,1.87,7.34-.31,7.34-5.2V312.52A16.72,16.72,0,0,0,118,304.43Z" style="fill:#BA68C8;opacity:0.30000000000000004"></path><path d="M134.51,352.05l-5.65,3.27c-1.2.69-2.17-.05-2.17-1.64V310.26a5.17,5.17,0,0,1,2.17-4.14l5.65-3.27c1.2-.69,2.17,0,2.17,1.64v43.42A5.17,5.17,0,0,1,134.51,352.05Z" style="fill:#BA68C8"></path><path d="M112.22,298.29,53.35,264.36c-4.54-2.62-8.22-.5-8.22,4.75v47.63c0,5.24,3.68,11.62,8.22,14.24l58.87,33.93c4.54,2.62,8.22.5,8.22-4.74V312.53C120.43,307.29,116.75,300.91,112.22,298.29Z" style="fill:#BA68C8"></path><path d="M112.22,298.29,53.35,264.36c-4.54-2.62-8.22-.5-8.22,4.75v47.63c0,5.24,3.68,11.62,8.22,14.24l58.87,33.93c4.54,2.62,8.22.5,8.22-4.74V312.53C120.43,307.29,116.75,300.91,112.22,298.29Z" style="fill:#fff;opacity:0.35000000000000003"></path><path d="M133.44,286,74.58,252.1h0c8.13,5,20.08,12.19,28.41,17.12,9.82,6,20.08,11.38,29.8,17.52a17.65,17.65,0,0,1,6.37,6.86,16.12,16.12,0,0,1,1.76,6.64c0,1.34,0,4.81,0,6.21.1,12.91.33,28.6.71,41.46V300.27C141.66,295,138,288.66,133.44,286Z" style="fill:#fff;opacity:0.55"></path></g></g><g id="Briefcase"><g id="briefcase"><g id="briefcase"><path d="M132.89,368.93v45.95c0,2.23-1.57,3.52-3.5,4.65l-4.83,2.8a4.64,4.64,0,0,1-3.77.74,10.21,10.21,0,0,1-2.58-1.06l-.1-.05-.26-.15L65.24,391.45a5.22,5.22,0,0,1-2.62-4.53V341.37a3.35,3.35,0,0,1,1.5-2.6L72.36,334a3.28,3.28,0,0,1,3,0l56,32.33a3,3,0,0,1,1.06,1.12A3.08,3.08,0,0,1,132.89,368.93Z" style="fill:#37474f"></path><path d="M132.89,368.93v45.95c0,2.23-1.57,3.52-3.5,4.65l-4.83,2.8a4.64,4.64,0,0,1-3.77.74,10.21,10.21,0,0,1-2.58-1.06v0c1.92.91,3.44-.1,3.44-2.38V376.32a4.57,4.57,0,0,0-.67-2.24l11.47-6.62A3.08,3.08,0,0,1,132.89,368.93Z" style="fill:#263238"></path><path d="M121.65,376.32a5,5,0,0,0-2.27-3.93l-53-30.56c-2.09-1.2-3.81-.22-3.81,2.2v42.89a5.24,5.24,0,0,0,2.62,4.53l52.62,30.36c2.09,1.21,3.8.22,3.8-2.19Z" style="fill:#455a64"></path><path d="M69.69,335.55l56.13,32.71a5.28,5.28,0,0,1,2.61,4.54v47.29l-.85.49,0-47.78a4.41,4.41,0,0,0-2.18-3.8L68.84,336Z" style="fill:#BA68C8"></path><path d="M89.63,341.42v7.12l-2.78,1.6v-9.45c0-.48.34-.68.77-.44Z" style="fill:#BA68C8"></path><path d="M89.63,341.42v7.12l-2.78,1.6v-9.45c0-.48.34-.68.77-.44Z" style="opacity:0.30000000000000004"></path><path d="M109.18,348.45V360l-2.66,1.53-1.79-1V351a1.69,1.69,0,0,0-.76-1.32l-13.56-7.82-2.81-1.63c-.43-.24-.77,0-.77.44v9.45l-1.8-1V337.59a.81.81,0,0,1,0-.15,1.72,1.72,0,0,1,.76-1.17l1.13-.65a1.66,1.66,0,0,1,1.52,0l20,11.51A1.71,1.71,0,0,1,109.18,348.45Z" style="fill:#BA68C8"></path><path d="M106.53,350V361.5l-1.79-1V351a1.69,1.69,0,0,0-.76-1.32l-13.56-7.82-2.81-1.63c-.43-.24-.77,0-.77.44v9.45l-1.8-1V337.59a.81.81,0,0,1,0-.15c.07-.37.38-.5.76-.29l20,11.51A1.73,1.73,0,0,1,106.53,350Z" style="opacity:0.2"></path></g></g></g><g id="Table"><g id="shadow"><polygon points="316.06 283.2 316.06 350.53 382.58 388.95 382.58 321.62 316.06 283.2" style="fill:#e0e0e0"></polygon><polygon points="316.06 283.2 316.06 350.53 382.58 388.95 382.58 321.62 316.06 283.2" style="opacity:0.15"></polygon></g><g id="table"><polygon points="263.04 396.38 263.04 410.54 372.27 347.47 372.27 333.31 263.04 396.38" style="fill:#37474f"></polygon><polygon points="263.04 396.38 201.3 360.73 201.3 374.89 263.04 410.54 263.04 396.38" style="fill:#263238"></polygon><polygon points="372.27 333.31 372.27 338.8 263.04 401.86 201.29 366.21 201.3 360.73 263.04 396.38 372.27 333.31" style="opacity:0.30000000000000004"></polygon><path d="M195.1,347.47a1.72,1.72,0,0,0-1,1.4v8.72a1.71,1.71,0,0,0,1,1.38l65.52,37.85a5.32,5.32,0,0,0,4.82,0l116.14-67.07a1.72,1.72,0,0,0,1-1.4v-8.71a1.7,1.7,0,0,0-1-1.39L316.06,280.4a5.32,5.32,0,0,0-4.82,0Z" style="fill:#BA68C8"></path><path d="M265.44,388.11,381.58,321a1.76,1.76,0,0,0,1-1.33v8.64a1.73,1.73,0,0,1-1,1.4L265.44,396.82a5,5,0,0,1-2.35.57v-8.71A4.86,4.86,0,0,0,265.44,388.11Z" style="fill:#BA68C8"></path><path d="M265.44,388.11,381.58,321a1.76,1.76,0,0,0,1-1.33v8.64a1.73,1.73,0,0,1-1,1.4L265.44,396.82a5,5,0,0,1-2.35.57v-8.71A4.86,4.86,0,0,0,265.44,388.11Z" style="fill:#fff;opacity:0.45"></path><path d="M260.62,388.11,195.1,350.26a1.47,1.47,0,0,1,0-2.79L311.24,280.4a5.32,5.32,0,0,1,4.82,0l65.52,37.85a1.47,1.47,0,0,1,0,2.78L265.44,388.11A5.38,5.38,0,0,1,260.62,388.11Z" style="fill:#fff"></path><path d="M313.65,280.75a4,4,0,0,1,2,.46l65.51,37.84c.4.23.54.46.54.59s-.14.36-.54.59L265,387.3a4.45,4.45,0,0,1-3.9,0l-65.51-37.85c-.4-.22-.54-.46-.54-.58s.14-.37.54-.59L311.7,281.21a4,4,0,0,1,1.95-.46m0-.93a5,5,0,0,0-2.41.58L195.1,347.47a1.47,1.47,0,0,0,0,2.79l65.52,37.85a5.38,5.38,0,0,0,4.82,0L381.58,321a1.47,1.47,0,0,0,0-2.78L316.06,280.4a5,5,0,0,0-2.41-.58Z" style="fill:#BA68C8"></path></g></g><g id="Device"><g id="Laptop"><path d="M336.13,326.39,300,305.54a2.07,2.07,0,0,0-2.07,0l-62.68,36.19a.46.46,0,0,0,0,.8l36.47,21.05Z" style="opacity:0.2"></path><path d="M331,323.35v.78a3.21,3.21,0,0,1-1.6,2.77l-56,32.32a3.17,3.17,0,0,1-1.6.42,3.31,3.31,0,0,1-1.61-.42l-30.51-17.57a3.19,3.19,0,0,1-1.6-2.77v-1.07h0a.41.41,0,0,0,.2.35l33.51,19.35Z" style="fill:#37474f"></path><path d="M331,323.34l-33.19-19.16a1.92,1.92,0,0,0-1.91,0l-57.59,33.25a.43.43,0,0,0,0,.74l33.51,19.35Z" style="fill:#455a64"></path><polygon points="271.52 354.7 253.62 344.37 305.97 314.15 323.97 324.42 271.52 354.7" style="fill:#37474f"></polygon><polygon points="323.97 324.42 323.28 324.81 305.97 314.93 254.31 344.77 253.62 344.37 305.97 314.14 323.97 324.42" style="fill:#263238"></polygon><polygon points="262.72 325.97 263.05 326.16 271.83 331.23 287.44 322.22 287.76 322.03 278.65 316.78 262.72 325.97" style="fill:#263238"></polygon><polygon points="263.05 326.16 271.83 331.23 287.44 322.22 278.65 317.15 263.05 326.16" style="fill:#37474f"></polygon><path d="M271.83,357.52v2.12a3.27,3.27,0,0,0,1.6-.42l56-32.32a3.2,3.2,0,0,0,1.6-2.78v-.78Z" style="fill:#263238"></path><path d="M272.73,358a3.8,3.8,0,0,0,3.27-.25l55.74-32.19a3.76,3.76,0,0,0,1.84-2.65l6.1-36.39a3.18,3.18,0,0,0,.05-.62,3.77,3.77,0,0,0-1.12-2.69l-57.92,33.44a2.84,2.84,0,0,0-1.36,2Z" style="fill:#37474f"></path><path d="M271.83,357.52l.38.22.52.25,6.6-39.38a2.84,2.84,0,0,1,1.36-2l57.92-33.44a3.74,3.74,0,0,0-.77-.59l-58,33.51a2.84,2.84,0,0,0-1.37,2Z" style="fill:#455a64"></path><path d="M279.86,317.39l-.89-.52a2.77,2.77,0,0,0-.54,1.21l-6.6,39.44.38.22.52.25,6.6-39.38A2.68,2.68,0,0,1,279.86,317.39Z" style="fill:#263238"></path><path d="M304.12,324.4c.41-2.44,2.93-5.68,5.62-7.23s4.55-.84,4.14,1.59-2.92,5.67-5.62,7.23S303.71,326.83,304.12,324.4Z" style="fill:#BA68C8"></path></g></g><g id="character-2"><g id="character"><g id="bottom"><path d="M368,334.86c1.47,17.35,3,33.64,3,33.82.27,5.51.38,9.61.38,12.58,0,5.68-.24,11.05-1.4,15.09a38.48,38.48,0,0,1-5.35,11.08s-5.71,7.05-4.28,7.63,14.49,1,20.17-1.17,5.93-7.14,7.26-16.27,2.46-22.09,2.46-22.09a9.73,9.73,0,0,1-1.4-2.26c-1.14-2.83,4.56-25.48,6-35.95s2.54-15.41-1.08-29.33l7.15-46.09,1.43-39.35-32-10c-4.7,25.7-5.07,68.59-4.43,81S367,323.53,368,334.86Z" style="fill:#ffa8a7"></path><path d="M395.12,386.32c-.08,2.14-1.53,4.75-1.86,8.11a58.34,58.34,0,0,0,0,11.52l.48,5.35-1.45.13s-.61-6.77-.87-9.74-1.11-5.15-2.56-5.34C388.82,396.35,388.09,387,395.12,386.32Z" style="fill:#263238"></path><path d="M389.55,374c1.13,2.41,3.71,4.7,5.16,8.38a8,8,0,0,1,.26,4.86c-1.05,1.3-1.77,1.79-2.56,2.69a12.13,12.13,0,0,0-3.14,4.92,88.31,88.31,0,0,0-2.62,12c-.64,4-.82,6.39-4,8.58-2.52,1.71-10.48,4-15.91,4.76-7.42,1-10.82-2.58-8.24-5.65s5.4-6.45,6.21-7.12a13.55,13.55,0,0,1,7,.46c4.3,1.49,5.81,3.82,10,1.32,3.82-2.27,5.74-10,4.64-20.55C385.08,376.71,389.55,374,389.55,374Z" style="fill:#37474f"></path><path d="M419.56,208.35c17.12,28.65,14.84,46.88,11.49,74.83-3.12,26.12-2.59,21.38-2.59,21.38a126.11,126.11,0,0,1,3,26.4c-.17,12.25-1.38,28.36-1.1,40.85.19,8.19-.45,13,1.68,22,1.14,4.8,1.35,8.85,2.56,13.19a92.6,92.6,0,0,1,2.88,13.6c.45,4.16,1.14,10.14-1.83,14.16-2.75,3.72-8.47,7.27-12.69,3.1s-5.43-10.64-5.84-19.34a216.72,216.72,0,0,0-2.9-28.36c-1.8-10-9.84-50.28-12.35-62.28s-5.57-22.62-7.3-36.91-7.7-41.16-7.7-41.16c-4.71-1.22-18.28-8.32-12.36-39.08Z" style="fill:#ffa8a7"></path><path d="M436.12,413.08c1.06,5.48.18,12.28-1.64,11.68-5.78-1.92-8.15-1.92-12.5,1.48s-5.23-13.93-5.23-13.93c.12,12,1,16.62,2.46,20.73s5.62,9.65,10.19,9.15c5.83-.64,9.12-11.28,9-14.85A78.2,78.2,0,0,0,436.12,413.08Z" style="fill:#37474f"></path><path d="M365.7,313.61c11.67,9.24,27,11.17,41.63,9.32a53.33,53.33,0,0,0,17.52-5.39,41.32,41.32,0,0,0,8-5.41c0-.29,0-.58,0-.85-.26-9.71,3.1-37,3.62-60.43.2-8.6-2.43-19-7.39-27.77-5.45-9.57-8.8-17.14-9.72-20.68,0,0-8.19,1.39-13.15,2.46-6.42,1.37-18.47,1.42-32.31-4.7-2,6.25-4.77,15.39-6.05,24.77a349.39,349.39,0,0,0-3.09,64.14C365,294.79,365.34,304,365.7,313.61Z" style="fill:#BA68C8"></path><path d="M365.7,313.61c11.67,9.24,27,11.17,41.63,9.32a53.33,53.33,0,0,0,17.52-5.39,41.32,41.32,0,0,0,8-5.41c0-.29,0-.58,0-.85-.26-9.71,3.1-37,3.62-60.43.2-8.6-2.43-19-7.39-27.77-5.45-9.57-8.8-17.14-9.72-20.68,0,0-8.19,1.39-13.15,2.46-6.42,1.37-18.47,1.42-32.31-4.7-2,6.25-4.77,15.39-6.05,24.77a349.39,349.39,0,0,0-3.09,64.14C365,294.79,365.34,304,365.7,313.61Z" style="opacity:0.30000000000000004"></path><path d="M407.51,235.27c-1.12,1.6-2.39,3.11-2.9,4a82.54,82.54,0,0,0-5.7,12.25c-7.84,21.34-5.84,34.7-6.51,56.65,0,.81.46,3.25-.73,3.77-1.48.64-2.06-.45-2.17-1.35s-.25-1.93-.37-2.89c-3.45-27.13-5.76-45.37-9.37-72.47a3.92,3.92,0,0,1,.4-2.94c1.76-2.47,4.83-.5,7,.4,2.81,1.16,5.67,1.72,8.8.55,2.31-.86,4.14-2.25,6.24-3.35a9.68,9.68,0,0,1,3.24-1.14,4.6,4.6,0,0,1,3.33.66C410.29,230.64,409.05,233.05,407.51,235.27Z" style="opacity:0.05"></path></g><g id="top"><g id="arm"><path d="M384.33,148.66c-10,2.08-14.68,5.59-14.87,17.35-.16,9.84,4.09,28.85,4.09,28.85L390,191.65Z" style="fill:#BA68C8"></path><path d="M384.33,148.66c-10,2.08-14.68,5.59-14.87,17.35-.16,9.84,4.09,28.85,4.09,28.85L390,191.65Z" style="opacity:0.4"></path><path d="M341.71,199.12c1.47-.82,31-8.74,31-8.74l3.07,13.83c-6.21,1-42.12,6.57-42.12,6.57a7.63,7.63,0,0,1,.19-2.51C335.46,204.8,340.55,199.76,341.71,199.12Z" style="fill:#ffa8a7"></path></g><g id="chest"><path d="M373.33,205.11a103.88,103.88,0,0,1-1-17.54c-6.16-8.18-3-17.8-.46-22.43,5.93-10.95,9.3-13.63,12.48-16.48a21.81,21.81,0,0,1,3.57-.57c5.05-.61,10.16-2.17,15.23-2.52,2.59-.18,5.34-.65,7.93-.32,1.38.17,1.24-.42,2.45.35A66.33,66.33,0,0,0,420,149l5.31,2.32a11.63,11.63,0,0,1,3.25,1.86c2.56,2.33,1.73,8.21,1.58,11.34a56.22,56.22,0,0,1-3.72,18.07l-.24.6c-4,9.76-6.23,16.47-6.67,22.92C402.38,213.81,388.15,212.83,373.33,205.11Z" style="fill:#ffa8a7"></path><path d="M371.44,188.08s.5,11.73,1.2,19c14.56,6.59,29.75,3.45,36.54,2.07,5.25-1.09,11-2.82,11-2.82-.06-3.35,7.1-24.08,7.1-24.08s-3.47-38.86-8.73-25.36c-3.54,9.06-21.14,8.71-27.35,8.21-11.37-.91-18.08-3.29-13.55-9.39C370.9,164.71,363.9,175.28,371.44,188.08Z" style="fill:#BA68C8"></path><path d="M371.44,188.08s.5,11.73,1.2,19c14.56,6.59,29.75,3.45,36.54,2.07,5.25-1.09,11-2.82,11-2.82-.06-3.35,7.1-24.08,7.1-24.08s-3.47-38.86-8.73-25.36c-3.54,9.06-21.14,8.71-27.35,8.21-11.37-.91-18.08-3.29-13.55-9.39C370.9,164.71,363.9,175.28,371.44,188.08Z" style="opacity:0.30000000000000004"></path><path d="M421,207s-7.28,7-25.56,6.77C379,213.56,372.58,209,372.58,209l-.26-5.82s8.66,5.74,23.14,5.44c17.89-.37,25.69-6.93,25.69-6.93A20.6,20.6,0,0,0,421,207Z" style="fill:#263238"></path></g><g id="arm"><path d="M423,150.36c9.75,3.71,10.35,4.68,12.92,11.45,5.64,14.89,12.12,35.33,13.24,40,2,8.21.44,10.12-4.92,13.55s-29.15,11.33-32.94,14.32a32,32,0,0,1-12.06,6c-4.61,1.15-9.6,2.33-14.35,1.17a18.24,18.24,0,0,0-2.8-.63,12.21,12.21,0,0,1-2.27-.2,1.7,1.7,0,0,1-1.34-1.62,2.24,2.24,0,0,1,.52-1,21.06,21.06,0,0,1,5.15-4.33q5.14-3.39,10.57-6.32,2.72-1.46,5.49-2.8c1.57-.77,3.26-1,4.84-1.78,3.58-1.66,6.47-4,10.21-6.42,5.06-3.29,13.46-10,13.46-10l-9.49-24.12S416.93,159.74,423,150.36Z" style="fill:#ffa8a7"></path><path d="M427.79,199.31l.94,2.4c2.92-2.23,10-2,12.94.44C440.85,200.07,434.72,196.57,427.79,199.31Z" style="fill:#f28f8f"></path><path d="M421.42,149.59A74.66,74.66,0,0,1,429,152.4c1.72.79,4.7,1.52,7.08,8.14s9.62,29.55,9.62,29.55a26.23,26.23,0,0,1-8.3,4.84,30.74,30.74,0,0,1-11.11,1.52l-7.74-18.92S413.4,166.23,421.42,149.59Z" style="fill:#BA68C8"></path><path d="M421.42,149.59A74.66,74.66,0,0,1,429,152.4c1.72.79,4.7,1.52,7.08,8.14s9.62,29.55,9.62,29.55a26.23,26.23,0,0,1-8.3,4.84,30.74,30.74,0,0,1-11.11,1.52l-7.74-18.92S413.4,166.23,421.42,149.59Z" style="opacity:0.4"></path><path d="M328.56,221.46h0c0-5.37,3.52-10.74,10.62-14.84,14.19-8.19,37.21-8.19,51.4,0,7.44,4.3,11,10,10.6,15.62v0c.37,5.63-3.16,11.32-10.6,15.62-14.19,8.19-37.21,8.19-51.4,0-7.1-4.1-10.63-7.63-10.62-13l0-1.84Z" style="fill:#37474f"></path><ellipse cx="364.9" cy="221.46" rx="36.34" ry="20.98" style="fill:#455a64"></ellipse><path d="M341,235.2c-6.49-3.65-10.06-8.53-10.06-13.74s3.57-10.09,10.06-13.74c13.2-7.43,34.68-7.43,47.88,0,6.49,3.65,10.06,8.53,10.06,13.74s-3.57,10.09-10.06,13.74h0c-6.6,3.71-15.27,5.57-23.94,5.57S347.56,238.91,341,235.2Zm47.44-.79c6.19-3.48,9.59-8.08,9.59-12.95s-3.4-9.47-9.59-13c-13-7.29-34-7.29-47,0-6.19,3.48-9.59,8.08-9.59,13s3.4,9.47,9.59,12.95c13,7.28,34,7.28,47,0Z" style="fill:#37474f"></path><path d="M409.53,215.6c-3.32,1.56-6.48,1-8.45,1.68a17.64,17.64,0,0,0-5.21,2.93,53,53,0,0,1-7.81,4.78c-1.38.76.48,2.56,3.06,2.46s7.33-2.47,9-2.21,1.72,1.13,1.72,1.13Z" style="fill:#ffa8a7"></path><path d="M350.61,202.16c-1,1.33-1.54,3.15-3.94,5.7-.87.93-3.72,3.28-4.57,4-1.49,1.31-2.66,2.64-3.18,2.47-.55-.32-.9-1.16-.75-2.47.21-1.94,2.44-4.68,2.95-6.3C342.28,201.89,350.61,202.16,350.61,202.16Z" style="fill:#ffa8a7"></path><path id="shadow" d="M341.42,215.65c-5.5,3.17-5.5,8.31,0,11.48s14.39,3.17,19.88,0,5.49-8.31,0-11.48S346.91,212.48,341.42,215.65Z" style="fill:#37474f"></path><g id="wine-bottle"><g id="wine-bottle"><path d="M354.75,158.92V148.43l-3.39.14-3.4-.14v10.49a17,17,0,0,1-4.28,11.36c-1.71,1.9-3.3,5-3.37,9.85v40h0c0,2.38,2.33,4.8,6.94,5.93a17.31,17.31,0,0,0,8.22,0c4.6-1.13,6.92-3.55,6.94-5.93h0v-40c-.08-4.88-1.67-7.95-3.38-9.85A17,17,0,0,1,354.75,158.92Z" style="fill:#BA68C8"></path><path d="M354.75,158.92V148.43l-3.39.14-3.4-.14v10.49a17,17,0,0,1-4.28,11.36c-1.71,1.9-3.3,5-3.37,9.85v40h0c0,2.38,2.33,4.8,6.94,5.93a17.31,17.31,0,0,0,8.22,0c4.6-1.13,6.92-3.55,6.94-5.93h0v-40c-.08-4.88-1.67-7.95-3.38-9.85A17,17,0,0,1,354.75,158.92Z" style="opacity:0.5"></path><path d="M341.56,177.72a5.25,5.25,0,0,1,2.83-3.47,15.4,15.4,0,0,1,13.93,0,5.16,5.16,0,0,1,2.86,3.61,12.52,12.52,0,0,0-2.94-6.87,18,18,0,0,1-4.56-12.07v-9.37l-2.32.09-2.33-.09v9.37A18,18,0,0,1,344.48,171,12.34,12.34,0,0,0,341.56,177.72Z" style="fill:#BA68C8;opacity:0.2"></path><path d="M341.37,180.15v40c0,2.06,2.43,4,6.13,4.89a16.09,16.09,0,0,0,7.72,0c3.7-.9,6.1-2.83,6.12-4.9v-40a20.55,20.55,0,0,0-.16-2.27,5.16,5.16,0,0,0-2.86-3.61,15.4,15.4,0,0,0-13.93,0,5.25,5.25,0,0,0-2.83,3.47h0a2,2,0,0,0,0,.24v0A18.45,18.45,0,0,0,341.37,180.15Z" style="fill:#BA68C8"></path><path d="M341.37,180.15v40c0,2.06,2.43,4,6.13,4.89a16.09,16.09,0,0,0,7.72,0c3.7-.9,6.1-2.83,6.12-4.9v-40a20.55,20.55,0,0,0-.16-2.27,5.16,5.16,0,0,0-2.86-3.61,15.4,15.4,0,0,0-13.93,0,5.25,5.25,0,0,0-2.83,3.47h0a2,2,0,0,0,0,.24v0A18.45,18.45,0,0,0,341.37,180.15Z" style="opacity:0.30000000000000004"></path><path d="M344.39,182.29a15.4,15.4,0,0,0,13.93,0c2.1-1.21,3.06-2.84,2.86-4.43a5.16,5.16,0,0,0-2.86-3.61,15.4,15.4,0,0,0-13.93,0,5.25,5.25,0,0,0-2.83,3.47h0a2,2,0,0,0,0,.24v0C341.4,179.54,342.35,181.11,344.39,182.29Z" style="fill:#BA68C8;opacity:0.2"></path><path d="M344.54,223.3a15,15,0,0,0,13.63,0c2.06-1.18,3-2.78,2.8-4.33a5,5,0,0,0-2.8-3.54,15.08,15.08,0,0,0-13.63,0,5.16,5.16,0,0,0-2.78,3.4h0l0,.24v0C341.61,220.61,342.54,222.15,344.54,223.3Z" style="fill:#BA68C8;opacity:0.2"></path><path d="M350.87,226.45c4.65,0,7.93-3.39,7.93-5.87v-31.5c0-9.32.15-12-3.52-18.39-3.23-5.58-3.15-8-3.08-22.15l2.55-.11v10.49A17,17,0,0,0,359,170.28c1.71,1.9,3.3,5,3.38,9.85v40c0,2.38-2.34,4.8-6.94,5.93a17.44,17.44,0,0,1-4.6.49Z" style="opacity:0.2"></path><path d="M349.75,160.09V148.51l1.12,0V161a21.67,21.67,0,0,1-2.58,9.45c-1.45,2.55-3.45,4.6-3.45,11.88v42.9a10.73,10.73,0,0,1-2.19-1.22V180.76c0-3.4,1.58-7.1,4.11-10.74A16.42,16.42,0,0,0,349.75,160.09Z" style="fill:#BA68C8;opacity:0.30000000000000004"></path><path d="M355,147.12s0-.06,0-.1a1.77,1.77,0,0,0-1.05-1.56,5.72,5.72,0,0,0-5.13,0,2.17,2.17,0,0,0-.93,1l-.06.11s0,.05,0,.07a.71.71,0,0,0-.06.24v5.48a1.8,1.8,0,0,0,1.06,1.49,5.66,5.66,0,0,0,5.13,0,1.9,1.9,0,0,0,1-1.25.28.28,0,0,0,0-.12Z" style="fill:#37474f"></path><path d="M348.2,153.35A3.8,3.8,0,0,0,351,154c.88-.14,1.73-.55,1.73-1.61V145a4.38,4.38,0,0,1,1.18.45A1.77,1.77,0,0,1,355,147s0,.06,0,.1v5.32a.28.28,0,0,1,0,.12,1.9,1.9,0,0,1-1,1.25,5.66,5.66,0,0,1-5.13,0A2.37,2.37,0,0,1,348.2,153.35Z" style="fill:#263238"></path><ellipse cx="351.36" cy="146.94" rx="3.62" ry="2.09" style="fill:#455a64"></ellipse></g><path d="M347.25,191.4a17.31,17.31,0,0,0,8.22,0c4.6-1.12,6.92-3.55,6.94-5.92v20.16c0,2.38-2.34,4.8-6.94,5.93a17.31,17.31,0,0,1-8.22,0c-4.61-1.13-6.92-3.55-6.94-5.93V185.48C340.33,187.86,342.64,190.28,347.25,191.4Z" style="fill:#fff"></path><path d="M358.8,210.35V190.18c2.39-1.26,3.59-3,3.61-4.7v20.16C362.39,207.36,361.19,209.09,358.8,210.35Z" style="fill:#e0e0e0"></path><path d="M346.37,192.77c0,3,2.07,5.5,4.62,5.5s4.62-2.46,4.62-5.5-2.07-5.51-4.62-5.51S346.37,189.73,346.37,192.77Z" style="fill:#BA68C8"></path><path d="M349.59,197a4.08,4.08,0,0,1-1.17-.85,3.87,3.87,0,0,0,1.12.93,3.18,3.18,0,0,0,1.8.34,3.37,3.37,0,0,0,1.59-.58,4.29,4.29,0,0,0,1.18-1.22,5.29,5.29,0,0,0,.33-4.87,4.63,4.63,0,0,0-.95-1.36,4.82,4.82,0,0,1,.85,1.41,5.28,5.28,0,0,1-.41,4.71,4.13,4.13,0,0,1-1.11,1.17,3.41,3.41,0,0,1-1.5.58A3.21,3.21,0,0,1,349.59,197Zm-2.48-3.79a4.68,4.68,0,0,0,1.31,2.94,4.43,4.43,0,0,1-.81-1.37,4.85,4.85,0,0,1-.33-1.59,5.61,5.61,0,0,1,.65-3.12,3.3,3.3,0,0,1,1.08-1.15,3.66,3.66,0,0,1,4.48.47,3.57,3.57,0,0,0-1.35-1,2.76,2.76,0,0,0-.81-.21,3.84,3.84,0,0,0-.83,0,3.62,3.62,0,0,0-1.59.53,3.66,3.66,0,0,0-1.17,1.21,5,5,0,0,0-.55,1.58,5.85,5.85,0,0,0-.09.83A4.71,4.71,0,0,0,347.11,193.16Z" style="fill:#BA68C8"></path><path d="M349.59,197a4.08,4.08,0,0,1-1.17-.85,3.87,3.87,0,0,0,1.12.93,3.18,3.18,0,0,0,1.8.34,3.37,3.37,0,0,0,1.59-.58,4.29,4.29,0,0,0,1.18-1.22,5.29,5.29,0,0,0,.33-4.87,4.63,4.63,0,0,0-.95-1.36,4.82,4.82,0,0,1,.85,1.41,5.28,5.28,0,0,1-.41,4.71,4.13,4.13,0,0,1-1.11,1.17,3.41,3.41,0,0,1-1.5.58A3.21,3.21,0,0,1,349.59,197Zm-2.48-3.79a4.68,4.68,0,0,0,1.31,2.94,4.43,4.43,0,0,1-.81-1.37,4.85,4.85,0,0,1-.33-1.59,5.61,5.61,0,0,1,.65-3.12,3.3,3.3,0,0,1,1.08-1.15,3.66,3.66,0,0,1,4.48.47,3.57,3.57,0,0,0-1.35-1,2.76,2.76,0,0,0-.81-.21,3.84,3.84,0,0,0-.83,0,3.62,3.62,0,0,0-1.59.53,3.66,3.66,0,0,0-1.17,1.21,5,5,0,0,0-.55,1.58,5.85,5.85,0,0,0-.09.83A4.71,4.71,0,0,0,347.11,193.16Z" style="opacity:0.30000000000000004"></path></g><path id="shadow" d="M371.61,221.3c-3.54,2-3.54,5.36,0,7.4a14.19,14.19,0,0,0,12.82,0c3.54-2,3.54-5.36,0-7.4A14.19,14.19,0,0,0,371.61,221.3Z" style="fill:#37474f"></path><g id="Glass"><path d="M373.36,221.51a10.25,10.25,0,0,1,9.31,0,3.26,3.26,0,0,1,1.93,2.69v.68a3.28,3.28,0,0,1-1.93,2.69,10.32,10.32,0,0,1-9.31,0,3.3,3.3,0,0,1-1.93-2.69v-.68A3.28,3.28,0,0,1,373.36,221.51Z" style="fill:#BA68C8"></path><path d="M373.36,221.51a10.25,10.25,0,0,1,9.31,0,3.26,3.26,0,0,1,1.93,2.69v.68a3.28,3.28,0,0,1-1.93,2.69,10.32,10.32,0,0,1-9.31,0,3.3,3.3,0,0,1-1.93-2.69v-.68A3.28,3.28,0,0,1,373.36,221.51Z" style="fill:#fff;opacity:0.30000000000000004"></path><path d="M382.67,226.88c2.57-1.48,2.57-3.89,0-5.37a10.25,10.25,0,0,0-9.31,0c-2.57,1.48-2.57,3.89,0,5.37A10.25,10.25,0,0,0,382.67,226.88Z" style="fill:#BA68C8"></path><path d="M382.67,226.88c2.57-1.48,2.57-3.89,0-5.37a10.25,10.25,0,0,0-9.31,0c-2.57,1.48-2.57,3.89,0,5.37A10.25,10.25,0,0,0,382.67,226.88Z" style="fill:#fff;opacity:0.55"></path><path d="M380,222.35c1.59.35,2,1.47,1.16,2.32-1.31,1.32-4.63,1-5.57-.21Z" style="fill:#BA68C8;opacity:0.30000000000000004"></path><path d="M375.17,221.32c-1.82.46-3.58,3.7-.19,5.15,2.48,1.07,6.91.51,7.59,0a9.9,9.9,0,0,1-7.74.59C370.16,225.53,371.94,221.59,375.17,221.32Z" style="fill:#fff;opacity:0.30000000000000004"></path><g id="glass"><path d="M370.93,176.84h14.18s1.43,12.89,1.28,19a8.37,8.37,0,0,1-4.24,7.28,6.06,6.06,0,0,0-3.12,5.27V221a1.31,1.31,0,0,0,.61,1.11,3,3,0,0,1,1,1,.35.35,0,0,1,.05.08c.28.55.05,1.17-.7,1.61a4.38,4.38,0,0,1-4,0c-.76-.44-1-1.06-.71-1.61l.09-.15a3.22,3.22,0,0,1,1-.95A1.3,1.3,0,0,0,377,221V208.36a6.07,6.07,0,0,0-3.11-5.27,8.36,8.36,0,0,1-4.25-7.28C369.5,189.73,370.93,176.84,370.93,176.84Z" style="fill:#BA68C8"></path><path d="M370.93,176.84h14.18s1.43,12.89,1.28,19a8.37,8.37,0,0,1-4.24,7.28,6.06,6.06,0,0,0-3.12,5.27V221a1.31,1.31,0,0,0,.61,1.11,3,3,0,0,1,1,1,.35.35,0,0,1,.05.08c.28.55.05,1.17-.7,1.61a4.38,4.38,0,0,1-4,0c-.76-.44-1-1.06-.71-1.61l.09-.15a3.22,3.22,0,0,1,1-.95A1.3,1.3,0,0,0,377,221V208.36a6.07,6.07,0,0,0-3.11-5.27,8.36,8.36,0,0,1-4.25-7.28C369.5,189.73,370.93,176.84,370.93,176.84Z" style="fill:#fff;opacity:0.5"></path><path d="M380.66,203.32c1.54-.78,3.09-1.25,4.48-3.11a8.5,8.5,0,0,1-3,2.88,6.06,6.06,0,0,0-3.12,5.27C379,205.4,379.1,204.11,380.66,203.32Z" style="fill:#BA68C8;opacity:0.2"></path><path d="M378,203a7.68,7.68,0,0,0,7.75-7.58h0c.12-5.13-.95-15.44-1.22-17.92H371.49c-.27,2.48-1.35,12.79-1.22,17.92h0A7.67,7.67,0,0,0,378,203Z" style="fill:#BA68C8"></path><path d="M378,203a7.68,7.68,0,0,0,7.75-7.58h0c.12-5.13-.95-15.44-1.22-17.92H371.49c-.27,2.48-1.35,12.79-1.22,17.92h0A7.67,7.67,0,0,0,378,203Z" style="fill:#fff;opacity:0.30000000000000004"></path><path d="M385,184.68c.31,3.71.59,8,.52,10.71a7.54,7.54,0,0,1-15.07,0c-.07-2.73.21-7,.53-10.69Z" style="fill:#BA68C8"></path><path d="M385,184.68c.31,3.71.59,8,.52,10.71a7.54,7.54,0,0,1-15.07,0c-.07-2.73.21-7,.53-10.69Z" style="fill:#fff;opacity:0.85"></path><path d="M373.06,181.82c-2.74,1.58-2.74,4.14,0,5.72a10.89,10.89,0,0,0,9.91,0c2.74-1.58,2.74-4.14,0-5.72A11,11,0,0,0,373.06,181.82Z" style="fill:#fafafa"></path><path d="M371.78,192.54c.06-1.53.22-4,.38-6.42l.06-.06.38-.31a10.33,10.33,0,0,1,1.74-1c-.46,6-.84,10.53.13,13.4.53,1.58,2.06,2.81,2.93,4.51h0a8.68,8.68,0,0,1-1-.15l-.05,0a5.27,5.27,0,0,1-.68-.19l-.08,0-.2-.07h0l-.86-.83C371.76,198.8,371.64,196.23,371.78,192.54Z" style="fill:#fff;opacity:0.5"></path><path d="M383,179.73c2.77-1.6,2.77-4.19,0-5.79a11.08,11.08,0,0,0-10,0c-2.77,1.6-2.77,4.19,0,5.79A11.08,11.08,0,0,0,383,179.73Z" style="fill:#BA68C8"></path><path d="M383,179.73c2.77-1.6,2.77-4.19,0-5.79a11.08,11.08,0,0,0-10,0c-2.77,1.6-2.77,4.19,0,5.79A11.08,11.08,0,0,0,383,179.73Z" style="fill:#fff;opacity:0.6000000000000001"></path><path d="M378,180.31a9.58,9.58,0,0,0,4.7-1.12,2.46,2.46,0,0,0,0-4.71,10.51,10.51,0,0,0-9.4,0,2.45,2.45,0,0,0,0,4.71A9.52,9.52,0,0,0,378,180.31Z" style="fill:#BA68C8"></path><path d="M378,180.31a9.58,9.58,0,0,0,4.7-1.12,2.46,2.46,0,0,0,0-4.71,10.51,10.51,0,0,0-9.4,0,2.45,2.45,0,0,0,0,4.71A9.52,9.52,0,0,0,378,180.31Z" style="fill:#fff;opacity:0.30000000000000004"></path></g></g></g><g id="head"><path d="M374.81,104.7a7,7,0,0,1-.43-4,10.78,10.78,0,0,1,3.1-5.2,14.77,14.77,0,0,1,3.26-2.58c2.32-1.3,5-1.68,7.42-2.71,1.13-.49,2-1.33,3-1.85a11.75,11.75,0,0,1,4.41-.77A23.47,23.47,0,0,1,407.1,90c3.42,1.71,6.6,4.63,7.09,8.42a10.77,10.77,0,0,1,6,4.64,13.54,13.54,0,0,1,2,7.38c-.08,4.93-2.24,9.83-4.36,14.2a139.17,139.17,0,0,1-7.62,13.24c.15-.24-5.23-2.16-5.73-2.28-1-.25-2.15-.22-3.11-.53a15,15,0,0,1-2.27-1.34c-3.7-2.05-7.79-3.23-11.67-4.85-2.21-.93-5.38-2.18-7-4a6.22,6.22,0,0,1-1.52-3c-.05-.27,0-3.3.25-3.17a9.49,9.49,0,0,1-4.87-5.27c-.73-2.34.12-5.26,2.32-6.35A7,7,0,0,1,374.81,104.7Z" style="fill:#263238"></path><path d="M418.73,147.45a8.33,8.33,0,0,1-2.59-.64,37,37,0,0,1-3.47-2.21,18.45,18.45,0,0,1-3-1.73,34.22,34.22,0,0,1-8.92-11.27c-1.68-3.38-4.24-8-3.2-11.79a16,16,0,0,1,5.41-7.93,17.23,17.23,0,0,1,9.27-4.2c4.84-.59,7.61,0,10.66,1.95a6.17,6.17,0,0,0,2.21,1.09,1.62,1.62,0,0,0,1.9-1.15,3.12,3.12,0,0,1-1.52,4.28,6.59,6.59,0,0,1,5,1.88,9.82,9.82,0,0,1,2.63,4.78,9,9,0,0,1,.08,4.5,5.63,5.63,0,0,1-2.65,3.53,7.23,7.23,0,0,0-1.28.71,2.14,2.14,0,0,0,.24,3.21,2.43,2.43,0,0,0,3.25-.67,2.25,2.25,0,0,1-.9,3,6.6,6.6,0,0,1-3.38.7c1.35,2,.87,4.83-.24,7C426.59,145.79,422.34,147.74,418.73,147.45Z" style="fill:#263238"></path><path d="M395.94,104.68a24.9,24.9,0,0,0,7.53-2.49,19.24,19.24,0,0,0,.46,6.19,13.87,13.87,0,0,0,3.87,6.3,1.12,1.12,0,0,1,.33.42,1.22,1.22,0,0,1-.12.74,8.27,8.27,0,0,0,.77,7.41c.82,1.08,2.07,1.16,2.71-.15.82-1.67.41-2.82,2.68-4.36s5.27-.26,6.6,1.71c1.61,2.39,1.54,6.11-.76,9.4-1.26,1.8-2.88,3.61-5.33,3.24a4.07,4.07,0,0,1-3.06-2.7s-.07,7.91.32,11.76c.34,3.26,4.13,6.79,7.59,7.44,2.93.55-5.11,4.61-11.6,6.52s-21.55-1.47-24.09-4.05c6.36-.83,6.6-2.65,6.72-4.79l0-4.93a14.94,14.94,0,0,1-8.24-2.9c-2.81-1.92-6.64-8.77-4.7-21.16.54-3.4-.24-5.78.56-9.13a16.45,16.45,0,0,1,1.84-5.48,7,7,0,0,1,1.73-2.16c.67-.38,1.56.24,2.08.61a16.15,16.15,0,0,0,9.75,2.77A20.54,20.54,0,0,0,395.94,104.68Z" style="fill:#ffa8a7"></path><path d="M417,129.61a1.48,1.48,0,1,1-1.57-1.38A1.47,1.47,0,0,1,417,129.61Z" style="fill:#263238"></path><path d="M390.58,142.34c4.15-.41,7.62-.77,12.15-3.71,2.5-1.62,4.85-5.87,5.74-8.87,0,0,.4,7.11-4.5,10.85-4.57,3.49-13.4,4.1-13.4,4.1Z" style="fill:#f28f8f"></path><polygon points="390.02 114.12 388.81 125.78 382.81 123.83 390.02 114.12" style="fill:#f28f8f"></polygon><path d="M380.29,113.47l4.32-1.11a2.15,2.15,0,0,0-2.64-1.64A2.35,2.35,0,0,0,380.29,113.47Z" style="fill:#263238"></path><path d="M382.62,116a2,2,0,0,0-1.66,1.21,1.56,1.56,0,0,1-1.13-.65,1.35,1.35,0,0,0,1,1.29s0,.09,0,.14c0,1,1-.49,2.17-.6s2,1.17,2,.2S383.77,115.91,382.62,116Z" style="fill:#263238"></path><path d="M397,116.88a2,2,0,0,1,1.52,1.37,1.55,1.55,0,0,0,1.2-.52,1.35,1.35,0,0,1-1.11,1.18v.14c-.08,1-1-.6-2.09-.83s-2.07,1-2,0S395.91,116.65,397,116.88Z" style="fill:#263238"></path><path d="M395.83,113.25l4.48,1.62a2.27,2.27,0,0,0-1.34-3A2.5,2.5,0,0,0,395.83,113.25Z" style="fill:#263238"></path><path d="M394.4,127.87l-6,2.18a3.07,3.07,0,0,0,4,2A3.35,3.35,0,0,0,394.4,127.87Z" style="fill:#b16668"></path><path d="M391.16,132.21a3.07,3.07,0,0,0,1.22-.18,3.34,3.34,0,0,0,2.16-3.22A3.91,3.91,0,0,0,391.16,132.21Z" style="fill:#f28f8f"></path></g><g id="Uniform"><g id="Scarf"><path d="M390.57,143.1c-1.08.12-.62,1.28-1,2a16.75,16.75,0,0,0-1.67,3c-.21.92.28,5,8.77,6.06s14.29-1.83,16.59-4,2.31-3.57,1.94-4.18-1.15-.67-1.57-1.58,0-3.65-1.8-3.64l.11,1.36S411.15,145,405,146c-10.61,1.72-14.44-1.74-14.44-1.74Z" style="fill:#BA68C8"></path><path d="M405.7,161.37a19.15,19.15,0,0,0,.75,4.64,12.1,12.1,0,0,0,7.22,8.06,15.22,15.22,0,0,1,0-4.57c.7-5.3,3.66-9.95,3-15.44-.32-2.73-1.48-6.76-5-6.46-3.21.28-4.64,3.53-5.29,6.28A28.16,28.16,0,0,0,405.7,161.37Z" style="fill:#BA68C8"></path><path d="M411.76,153.36a15.18,15.18,0,0,0,5.16,7.63c3.81,3,8.79,4.29,13.66,4.37a12.39,12.39,0,0,1-2.83-3.65c-1.87-4.46-2.93-9.64-6.36-13.14a8.88,8.88,0,0,0-6.78-3c-1.91.11-2.87.61-3.19,2.59A11.85,11.85,0,0,0,411.76,153.36Z" style="fill:#BA68C8"></path><path d="M417.2,151.73a7.85,7.85,0,0,0-2.05-3,5.47,5.47,0,0,0-2.93-1.54c-.07,0-.06.15,0,.17.46.26,1,.44,1.4.72a6,6,0,0,1,1.35,1.17,8.06,8.06,0,0,1,1.64,2.89,9.12,9.12,0,0,1,.34,3.78,18.93,18.93,0,0,1-.64,3.58s0,.14.07.07a8.22,8.22,0,0,0,1.38-3.91A9,9,0,0,0,417.2,151.73Z" style="opacity:0.2"></path></g><g id="Hat"><path d="M385.25,97.11c.87,4.92,6.51,9.65,12.51,12.57s12.86,3.84,18,1c4-2.23,3.73-16.43,3.73-16.43s0-7.32-10.36-11.43c-9.7-3.84-15.49.61-15.49.61S384.47,92.66,385.25,97.11Z" style="fill:#BA68C8"></path><path d="M406.77,100.52a18,18,0,0,0-1.95-3.69,9.69,9.69,0,0,0-2.95-1.92,18.72,18.72,0,0,1-6.36-5c-1.61-2.17-2.18-4.31-1.3-6.82-.32.18-.49.31-.54.34a7.11,7.11,0,0,0,.59,5.66,16.77,16.77,0,0,0,5.51,5.25c1.36.88,2.3,1.41,3.47,2.1,1.37.81,1.75,2.19,2.46,3.56a61.25,61.25,0,0,0,4.23,7.7,16.6,16.6,0,0,0,3.8,3.91q.38-.14.75-.3C410.76,108.85,408.72,104.39,406.77,100.52Z" style="opacity:0.30000000000000004"></path><path d="M409.44,84.34C403.44,81.79,395,81.93,396,86s11.27,11,18.39,9.7C422.3,94.23,414.17,86.35,409.44,84.34Z" style="opacity:0.30000000000000004"></path></g></g></g></g></g><g id="speech-bubble"><g id="speech-bubble"><g id="speech-bubble"><path d="M97.88,60.3a27.64,27.64,0,0,1,8,18.73l-.1,3.18a27.7,27.7,0,0,1-55.22-.35l-.06-3.17A27.7,27.7,0,0,1,97.88,60.3Z" style="fill:#fff"></path><path d="M57,58.42a30.07,30.07,0,0,0,38.48,45.94l8.53,3.81a1.75,1.75,0,0,0,2.32-2.29l-3.74-8.57A30.07,30.07,0,0,0,57,58.42Zm40.86,1.84a27.65,27.65,0,0,1,8,18.72l-.09,3.18a27.7,27.7,0,0,1-55.22-.25l-.07-3.17A27.71,27.71,0,0,1,97.85,60.26Z" style="fill:#455a64"></path></g><g id="Check"><path d="M73.87,97.55a4.37,4.37,0,0,1-3.18-1.37L60.84,85.66a4.35,4.35,0,1,1,6.35-6l6.4,6.84L88.73,67.37a4.34,4.34,0,0,1,6.82,5.38L77.28,95.9a4.35,4.35,0,0,1-3.23,1.65Z" style="fill:#BA68C8"></path></g></g></g></svg>
